<svg width="1280" height="720" xmlns="http://www.w3.org/2000/svg" xmlns:xlink="http://www.w3.org/1999/xlink" overflow="hidden"><g><rect x="0" y="0" width="1280" height="720" fill="#FFFFFF"/><rect x="16.5001" y="12.5001" width="1225" height="337" stroke="#172C51" stroke-width="1.33333" stroke-miterlimit="8" stroke-dasharray="5.33333 4" fill="none"/><path d="M272.5 184.25 390 184.25 390 175.5 407.5 193 390 210.5 390 201.75 272.5 201.75Z" stroke="#172C51" stroke-width="1.33333" stroke-miterlimit="8" fill="#4486B4" fill-rule="evenodd"/><text font-family="Times New Roman,Times New Roman_MSFontService,sans-serif" font-weight="400" font-size="27" transform="translate(301.311 171)">Merge</text><path d="M496.5 119.5C496.5 114.529 500.753 110.5 506 110.5 511.247 110.5 515.5 114.529 515.5 119.5 515.5 124.471 511.247 128.5 506 128.5 500.753 128.5 496.5 124.471 496.5 119.5Z" stroke="#000000" stroke-width="0.333333" stroke-miterlimit="8" fill="#5B9BD5" fill-rule="evenodd"/><path d="M462.5 171C462.5 165.753 466.753 161.5 472 161.5 477.247 161.5 481.5 165.753 481.5 171 481.5 176.247 477.247 180.5 472 180.5 466.753 180.5 462.5 176.247 462.5 171Z" stroke="#000000" stroke-width="0.333333" stroke-miterlimit="8" fill="#5B9BD5" fill-rule="evenodd"/><path d="M505.5 147C505.5 141.753 509.753 137.5 515 137.5 520.247 137.5 524.5 141.753 524.5 147 524.5 152.247 520.247 156.5 515 156.5 509.753 156.5 505.5 152.247 505.5 147Z" stroke="#000000" stroke-width="0.333333" stroke-miterlimit="8" fill="#5B9BD5" fill-rule="evenodd"/><path d="M0 0 27.2505 34.978" stroke="#000000" stroke-width="0.333333" stroke-miterlimit="8" fill="none" fill-rule="evenodd" transform="matrix(-1 0 0 1 499.751 126.5)"/><path d="M0 0 26.3198 16.5464" stroke="#000000" stroke-width="0.333333" stroke-miterlimit="8" fill="none" fill-rule="evenodd" transform="matrix(1 0 0 -1 481.5 171.046)"/><path d="M513.5 126.5 515.337 138.25" stroke="#000000" stroke-width="0.333333" stroke-miterlimit="8" fill="none" fill-rule="evenodd"/><path d="M559.5 164C559.5 158.753 563.753 154.5 569 154.5 574.247 154.5 578.5 158.753 578.5 164 578.5 169.247 574.247 173.5 569 173.5 563.753 173.5 559.5 169.247 559.5 164Z" stroke="#000000" stroke-width="0.333333" stroke-miterlimit="8" fill="#70AD47" fill-rule="evenodd"/><path d="M565.5 195C565.5 189.753 569.753 185.5 575 185.5 580.247 185.5 584.5 189.753 584.5 195 584.5 200.247 580.247 204.5 575 204.5 569.753 204.5 565.5 200.247 565.5 195Z" stroke="#000000" stroke-width="0.333333" stroke-miterlimit="8" fill="#70AD47" fill-rule="evenodd"/><path d="M622.5 187C622.5 181.753 626.753 177.5 632 177.5 637.247 177.5 641.5 181.753 641.5 187 641.5 192.247 637.247 196.5 632 196.5 626.753 196.5 622.5 192.247 622.5 187Z" stroke="#000000" stroke-width="0.333333" stroke-miterlimit="8" fill="#70AD47" fill-rule="evenodd"/><path d="M568.5 173.5 574.793 185.447" stroke="#000000" stroke-width="0.333333" stroke-miterlimit="8" fill="none" fill-rule="evenodd"/><path d="M0 0 37.701 8.4231" stroke="#000000" stroke-width="0.333333" stroke-miterlimit="8" fill="none" fill-rule="evenodd" transform="matrix(1 0 0 -1 584.5 194.923)"/><path d="M578.5 164.5 625.262 180.241" stroke="#000000" stroke-width="0.333333" stroke-miterlimit="8" fill="none" fill-rule="evenodd"/><path d="M554.248 61.3889C552.866 56.3568 555.825 51.1572 560.857 49.7752 565.889 48.3932 571.089 51.3522 572.471 56.3843 573.853 61.4164 570.894 66.6161 565.862 67.9981 560.83 69.3801 555.63 66.4211 554.248 61.3889Z" stroke="#000000" stroke-width="0.333333" stroke-miterlimit="8" fill="#ED7D31" fill-rule="evenodd"/><path d="M536.5 90.0001C536.5 84.7533 540.753 80.5001 546 80.5001 551.247 80.5001 555.5 84.7533 555.5 90.0001 555.5 95.2468 551.247 99.5001 546 99.5001 540.753 99.5001 536.5 95.2468 536.5 90.0001Z" stroke="#000000" stroke-width="0.333333" stroke-miterlimit="8" fill="#ED7D31" fill-rule="evenodd"/><path d="M604.5 90.0001C604.5 84.7533 608.753 80.5001 614 80.5001 619.247 80.5001 623.5 84.7533 623.5 90.0001 623.5 95.2468 619.247 99.5001 614 99.5001 608.753 99.5001 604.5 95.2468 604.5 90.0001Z" stroke="#000000" stroke-width="0.333333" stroke-miterlimit="8" fill="#ED7D31" fill-rule="evenodd"/><path d="M0 0 6.32966 16.1068" stroke="#000000" stroke-width="0.333333" stroke-miterlimit="8" fill="none" fill-rule="evenodd" transform="matrix(-1 0 0 1 558.83 67.5001)"/><path d="M0 0 48.79 0.134068" stroke="#000000" stroke-width="0.333333" stroke-miterlimit="8" fill="none" fill-rule="evenodd" transform="matrix(1 0 0 -1 555.5 90.6341)"/><path d="M572.5 64.5001 607.61 84.0117" stroke="#000000" stroke-width="0.333333" stroke-miterlimit="8" fill="none" fill-rule="evenodd"/><path d="M578.5 129C578.5 123.753 582.753 119.5 588 119.5 593.247 119.5 597.5 123.753 597.5 129 597.5 134.247 593.247 138.5 588 138.5 582.753 138.5 578.5 134.247 578.5 129Z" stroke="#000000" stroke-width="0.333333" stroke-miterlimit="8" fill="#ED7D31" fill-rule="evenodd"/><path d="M552.5 97.5001 581.043 122.582" stroke="#000000" stroke-width="0.333333" stroke-miterlimit="8" fill="none" fill-rule="evenodd"/><path d="M0 0 12.4193 25.2162" stroke="#000000" stroke-width="0.333333" stroke-miterlimit="8" fill="none" fill-rule="evenodd" transform="matrix(1 0 0 -1 594.5 121.716)"/><path d="M588.219 119.385 566.5 68.5001" stroke="#000000" stroke-width="0.333333" stroke-miterlimit="8" fill="none" fill-rule="evenodd"/><path d="M591.5 241C591.5 235.753 595.753 231.5 601 231.5 606.247 231.5 610.5 235.753 610.5 241 610.5 246.247 606.247 250.5 601 250.5 595.753 250.5 591.5 246.247 591.5 241Z" stroke="#000000" stroke-width="0.333333" stroke-miterlimit="8" fill="#BDD0E9" fill-rule="evenodd"/><path d="M566.5 264C566.5 258.753 570.753 254.5 576 254.5 581.247 254.5 585.5 258.753 585.5 264 585.5 269.247 581.247 273.5 576 273.5 570.753 273.5 566.5 269.247 566.5 264Z" stroke="#000000" stroke-width="0.333333" stroke-miterlimit="8" fill="#BDD0E9" fill-rule="evenodd"/><path d="M617.5 264C617.5 258.753 621.753 254.5 627 254.5 632.247 254.5 636.5 258.753 636.5 264 636.5 269.247 632.247 273.5 627 273.5 621.753 273.5 617.5 269.247 617.5 264Z" stroke="#000000" stroke-width="0.333333" stroke-miterlimit="8" fill="#BDD0E9" fill-rule="evenodd"/><path d="M0 0 11.9106 9.36987" stroke="#000000" stroke-width="0.333333" stroke-miterlimit="8" fill="none" fill-rule="evenodd" transform="matrix(-1 0 0 1 594.411 247.5)"/><path d="M607.5 247.5 619.924 256.97" stroke="#000000" stroke-width="0.333333" stroke-miterlimit="8" fill="none" fill-rule="evenodd"/><path d="M591.5 289C591.5 283.753 595.753 279.5 601 279.5 606.247 279.5 610.5 283.753 610.5 289 610.5 294.247 606.247 298.5 601 298.5 595.753 298.5 591.5 294.247 591.5 289Z" stroke="#000000" stroke-width="0.333333" stroke-miterlimit="8" fill="#BDD0E9" fill-rule="evenodd"/><path d="M582.5 270.5 594.298 282.635" stroke="#000000" stroke-width="0.333333" stroke-miterlimit="8" fill="none" fill-rule="evenodd"/><path d="M0 0 12.5374 12.0349" stroke="#000000" stroke-width="0.333333" stroke-miterlimit="8" fill="none" fill-rule="evenodd" transform="matrix(1 0 0 -1 607.5 282.535)"/><path d="M461.5 218C461.5 212.753 465.753 208.5 471 208.5 476.247 208.5 480.5 212.753 480.5 218 480.5 223.247 476.247 227.5 471 227.5 465.753 227.5 461.5 223.247 461.5 218Z" stroke="#000000" stroke-width="0.333333" stroke-miterlimit="8" fill="#FFC000" fill-rule="evenodd"/><path d="M434.5 270.5C434.5 265.53 438.53 261.5 443.5 261.5 448.471 261.5 452.5 265.53 452.5 270.5 452.5 275.471 448.471 279.5 443.5 279.5 438.53 279.5 434.5 275.471 434.5 270.5Z" stroke="#000000" stroke-width="0.333333" stroke-miterlimit="8" fill="#FFC000" fill-rule="evenodd"/><path d="M510.5 258C510.5 252.753 514.753 248.5 520 248.5 525.247 248.5 529.5 252.753 529.5 258 529.5 263.247 525.247 267.5 520 267.5 514.753 267.5 510.5 263.247 510.5 258Z" stroke="#000000" stroke-width="0.333333" stroke-miterlimit="8" fill="#FFC000" fill-rule="evenodd"/><path d="M0 0 21.0167 36.436" stroke="#000000" stroke-width="0.333333" stroke-miterlimit="8" fill="none" fill-rule="evenodd" transform="matrix(-1 0 0 1 464.517 224.5)"/><path d="M0 0 57.7933 12.6763" stroke="#000000" stroke-width="0.333333" stroke-miterlimit="8" fill="none" fill-rule="evenodd" transform="matrix(1 0 0 -1 452.5 270.176)"/><path d="M464.5 301C464.5 295.753 468.753 291.5 474 291.5 479.247 291.5 483.5 295.753 483.5 301 483.5 306.247 479.247 310.5 474 310.5 468.753 310.5 464.5 306.247 464.5 301Z" stroke="#000000" stroke-width="0.333333" stroke-miterlimit="8" fill="#FFC000" fill-rule="evenodd"/><path d="M450.5 277.5 467.821 294.249" stroke="#000000" stroke-width="0.333333" stroke-miterlimit="8" fill="none" fill-rule="evenodd"/><path d="M0 0 32.6447 29.4251" stroke="#000000" stroke-width="0.333333" stroke-miterlimit="8" fill="none" fill-rule="evenodd" transform="matrix(1 0 0 -1 480.5 293.925)"/><path d="M474.485 291.28 471.5 227.5" stroke="#000000" stroke-width="0.333333" stroke-miterlimit="8" fill="none" fill-rule="evenodd"/><path d="M510.5 213C510.5 207.753 514.753 203.5 520 203.5 525.247 203.5 529.5 207.753 529.5 213 529.5 218.247 525.247 222.5 520 222.5 514.753 222.5 510.5 218.247 510.5 213Z" stroke="#000000" stroke-width="0.333333" stroke-miterlimit="8" fill="#FFC000" fill-rule="evenodd"/><path d="M0 0 63.5655 44.4544" stroke="#000000" stroke-width="0.333333" stroke-miterlimit="8" fill="none" fill-rule="evenodd" transform="matrix(1 0 0 -1 450.5 263.954)"/><path d="M0 0 30.3325 5.25092" stroke="#000000" stroke-width="0.333333" stroke-miterlimit="8" fill="none" fill-rule="evenodd" transform="matrix(1 0 0 -1 480.5 217.751)"/><path d="M0 0 0.23727 26.2432" stroke="#000000" stroke-width="0.333333" stroke-miterlimit="8" fill="none" fill-rule="evenodd" transform="matrix(1 0 0 -1 520.5 248.743)"/><path d="M0 0 26.4403 15.7077" stroke="#000000" stroke-width="0.333333" stroke-miterlimit="8" fill="none" fill-rule="evenodd" transform="matrix(1 0 0 -1 513.5 113.208)"/><path d="M524.5 147.5 562.431 157.646" stroke="#000000" stroke-width="0.333333" stroke-miterlimit="8" fill="none" fill-rule="evenodd"/><path d="M613.5 99.5001 631.48 176.936" stroke="#000000" stroke-width="0.333333" stroke-miterlimit="8" fill="none" fill-rule="evenodd"/><path d="M0 0 5.01974 58.3361" stroke="#000000" stroke-width="0.333333" stroke-miterlimit="8" fill="none" fill-rule="evenodd" transform="matrix(1 0 0 -1 626.5 254.836)"/><path d="M0 0 35.9643 17.6912" stroke="#000000" stroke-width="0.333333" stroke-miterlimit="8" fill="none" fill-rule="evenodd" transform="matrix(1 0 0 -1 529.5 213.191)"/><path d="M529.5 257.5 566.22 263.378" stroke="#000000" stroke-width="0.333333" stroke-miterlimit="8" fill="none" fill-rule="evenodd"/><path d="M585.5 263.5 617.663 263.601" stroke="#000000" stroke-width="0.333333" stroke-miterlimit="8" fill="none" fill-rule="evenodd"/><path d="M456.624 174.352C446.008 161.017 453.884 137.086 474.215 120.902 494.545 104.718 519.632 102.408 530.248 115.744 540.863 129.079 532.988 153.009 512.657 169.194 492.326 185.378 467.24 187.687 456.624 174.352Z" stroke="#172C51" stroke-width="0.666667" stroke-miterlimit="8" stroke-dasharray="5.33333 2" fill="none" fill-rule="evenodd"/><path d="M434.035 305.304C414.217 285.998 421.093 246.797 449.393 217.745 477.694 188.692 516.702 180.791 536.52 200.096 556.338 219.402 549.462 258.603 521.162 287.656 492.861 316.708 453.853 324.609 434.035 305.304Z" stroke="#172C51" stroke-width="0.666667" stroke-miterlimit="8" stroke-dasharray="5.33333 2" fill="none" fill-rule="evenodd"/><path d="M596.762 301.6C575.812 299.305 560.631 280.991 562.855 260.694 565.078 240.397 583.864 225.803 604.813 228.098 625.763 230.393 640.944 248.707 638.72 269.004 636.497 289.301 617.711 303.895 596.762 301.6Z" stroke="#172C51" stroke-width="0.666667" stroke-miterlimit="8" stroke-dasharray="5.33333 2" fill="none" fill-rule="evenodd"/><path d="M544.441 172.36C547.683 155.038 572.476 145.144 599.817 150.261 627.158 155.378 646.694 173.57 643.452 190.892 640.209 208.214 615.417 218.109 588.076 212.991 560.735 207.874 541.199 189.683 544.441 172.36Z" stroke="#172C51" stroke-width="0.666667" stroke-miterlimit="8" stroke-dasharray="5.33333 2" fill="none" fill-rule="evenodd"/><path d="M621.426 131.794C605.603 148.885 574.586 145.9 552.149 125.126 529.713 104.353 524.351 73.6575 540.175 56.5667 555.999 39.4759 587.015 42.4614 609.452 63.2349 631.889 84.0084 637.25 114.704 621.426 131.794Z" stroke="#172C51" stroke-width="0.666667" stroke-miterlimit="8" stroke-dasharray="5.33333 2" fill="none" fill-rule="evenodd"/><path d="M0 236 45.2011 0 325 0 279.799 236Z" stroke="#172C51" stroke-width="1.33333" stroke-miterlimit="8" fill="none" fill-rule="evenodd" transform="matrix(-1.83697e-16 -1 -1 1.83697e-16 653.5 344.5)"/><path d="M102.5 119.5C102.5 114.529 106.753 110.5 112 110.5 117.247 110.5 121.5 114.529 121.5 119.5 121.5 124.471 117.247 128.5 112 128.5 106.753 128.5 102.5 124.471 102.5 119.5Z" stroke="#000000" stroke-width="0.333333" stroke-miterlimit="8" fill="#5B9BD5" fill-rule="evenodd"/><path d="M68.5001 171C68.5001 165.753 72.7533 161.5 78.0001 161.5 83.2468 161.5 87.5001 165.753 87.5001 171 87.5001 176.247 83.2468 180.5 78.0001 180.5 72.7533 180.5 68.5001 176.247 68.5001 171Z" stroke="#000000" stroke-width="0.333333" stroke-miterlimit="8" fill="#5B9BD5" fill-rule="evenodd"/><path d="M111.5 147C111.5 141.753 115.753 137.5 121 137.5 126.247 137.5 130.5 141.753 130.5 147 130.5 152.247 126.247 156.5 121 156.5 115.753 156.5 111.5 152.247 111.5 147Z" stroke="#000000" stroke-width="0.333333" stroke-miterlimit="8" fill="#5B9BD5" fill-rule="evenodd"/><path d="M0 0 27.2505 34.978" stroke="#000000" stroke-width="0.333333" stroke-miterlimit="8" fill="none" fill-rule="evenodd" transform="matrix(-1 0 0 1 105.751 126.5)"/><path d="M0 0 26.3198 16.5464" stroke="#000000" stroke-width="0.333333" stroke-miterlimit="8" fill="none" fill-rule="evenodd" transform="matrix(1 0 0 -1 87.5001 171.046)"/><path d="M118.5 126.5 120.337 138.25" stroke="#000000" stroke-width="0.333333" stroke-miterlimit="8" fill="none" fill-rule="evenodd"/><path d="M165.5 164C165.5 158.753 169.753 154.5 175 154.5 180.247 154.5 184.5 158.753 184.5 164 184.5 169.247 180.247 173.5 175 173.5 169.753 173.5 165.5 169.247 165.5 164Z" stroke="#000000" stroke-width="0.333333" stroke-miterlimit="8" fill="#70AD47" fill-rule="evenodd"/><path d="M171.5 195C171.5 189.753 175.753 185.5 181 185.5 186.247 185.5 190.5 189.753 190.5 195 190.5 200.247 186.247 204.5 181 204.5 175.753 204.5 171.5 200.247 171.5 195Z" stroke="#000000" stroke-width="0.333333" stroke-miterlimit="8" fill="#70AD47" fill-rule="evenodd"/><path d="M228.5 187C228.5 181.753 232.753 177.5 238 177.5 243.247 177.5 247.5 181.753 247.5 187 247.5 192.247 243.247 196.5 238 196.5 232.753 196.5 228.5 192.247 228.5 187Z" stroke="#000000" stroke-width="0.333333" stroke-miterlimit="8" fill="#70AD47" fill-rule="evenodd"/><path d="M174.5 173.5 180.793 185.447" stroke="#000000" stroke-width="0.333333" stroke-miterlimit="8" fill="none" fill-rule="evenodd"/><path d="M0 0 37.701 8.4231" stroke="#000000" stroke-width="0.333333" stroke-miterlimit="8" fill="none" fill-rule="evenodd" transform="matrix(1 0 0 -1 190.5 194.923)"/><path d="M184.5 164.5 231.262 180.241" stroke="#000000" stroke-width="0.333333" stroke-miterlimit="8" fill="none" fill-rule="evenodd"/><path d="M160.115 61.3889C158.733 56.3568 161.692 51.1572 166.724 49.7752 171.756 48.3932 176.955 51.3522 178.337 56.3843 179.719 61.4164 176.76 66.6161 171.728 67.9981 166.696 69.3801 161.497 66.4211 160.115 61.3889Z" stroke="#000000" stroke-width="0.333333" stroke-miterlimit="8" fill="#ED7D31" fill-rule="evenodd"/><path d="M142.5 90.0001C142.5 84.7533 146.753 80.5001 152 80.5001 157.247 80.5001 161.5 84.7533 161.5 90.0001 161.5 95.2468 157.247 99.5001 152 99.5001 146.753 99.5001 142.5 95.2468 142.5 90.0001Z" stroke="#000000" stroke-width="0.333333" stroke-miterlimit="8" fill="#ED7D31" fill-rule="evenodd"/><path d="M210.5 90.0001C210.5 84.7533 214.753 80.5001 220 80.5001 225.247 80.5001 229.5 84.7533 229.5 90.0001 229.5 95.2468 225.247 99.5001 220 99.5001 214.753 99.5001 210.5 95.2468 210.5 90.0001Z" stroke="#000000" stroke-width="0.333333" stroke-miterlimit="8" fill="#ED7D31" fill-rule="evenodd"/><path d="M0 0 6.32966 16.1068" stroke="#000000" stroke-width="0.333333" stroke-miterlimit="8" fill="none" fill-rule="evenodd" transform="matrix(-1 0 0 1 164.83 67.5001)"/><path d="M0 0 48.79 0.134068" stroke="#000000" stroke-width="0.333333" stroke-miterlimit="8" fill="none" fill-rule="evenodd" transform="matrix(1 0 0 -1 161.5 90.6341)"/><path d="M177.5 64.5001 212.61 84.0117" stroke="#000000" stroke-width="0.333333" stroke-miterlimit="8" fill="none" fill-rule="evenodd"/><path d="M184.5 129C184.5 123.753 188.753 119.5 194 119.5 199.247 119.5 203.5 123.753 203.5 129 203.5 134.247 199.247 138.5 194 138.5 188.753 138.5 184.5 134.247 184.5 129Z" stroke="#000000" stroke-width="0.333333" stroke-miterlimit="8" fill="#ED7D31" fill-rule="evenodd"/><path d="M158.5 97.5001 187.043 122.582" stroke="#000000" stroke-width="0.333333" stroke-miterlimit="8" fill="none" fill-rule="evenodd"/><path d="M0 0 12.4193 25.2162" stroke="#000000" stroke-width="0.333333" stroke-miterlimit="8" fill="none" fill-rule="evenodd" transform="matrix(1 0 0 -1 200.5 121.716)"/><path d="M194.219 119.385 172.5 68.5001" stroke="#000000" stroke-width="0.333333" stroke-miterlimit="8" fill="none" fill-rule="evenodd"/><path d="M197.5 241C197.5 235.753 201.753 231.5 207 231.5 212.247 231.5 216.5 235.753 216.5 241 216.5 246.247 212.247 250.5 207 250.5 201.753 250.5 197.5 246.247 197.5 241Z" stroke="#000000" stroke-width="0.333333" stroke-miterlimit="8" fill="#BDD0E9" fill-rule="evenodd"/><path d="M172.5 264C172.5 258.753 176.753 254.5 182 254.5 187.247 254.5 191.5 258.753 191.5 264 191.5 269.247 187.247 273.5 182 273.5 176.753 273.5 172.5 269.247 172.5 264Z" stroke="#000000" stroke-width="0.333333" stroke-miterlimit="8" fill="#BDD0E9" fill-rule="evenodd"/><path d="M223.5 264C223.5 258.753 227.753 254.5 233 254.5 238.247 254.5 242.5 258.753 242.5 264 242.5 269.247 238.247 273.5 233 273.5 227.753 273.5 223.5 269.247 223.5 264Z" stroke="#000000" stroke-width="0.333333" stroke-miterlimit="8" fill="#BDD0E9" fill-rule="evenodd"/><path d="M0 0 11.9106 9.36987" stroke="#000000" stroke-width="0.333333" stroke-miterlimit="8" fill="none" fill-rule="evenodd" transform="matrix(-1 0 0 1 200.411 247.5)"/><path d="M213.5 247.5 225.924 256.97" stroke="#000000" stroke-width="0.333333" stroke-miterlimit="8" fill="none" fill-rule="evenodd"/><path d="M197.5 289C197.5 283.753 201.753 279.5 207 279.5 212.247 279.5 216.5 283.753 216.5 289 216.5 294.247 212.247 298.5 207 298.5 201.753 298.5 197.5 294.247 197.5 289Z" stroke="#000000" stroke-width="0.333333" stroke-miterlimit="8" fill="#BDD0E9" fill-rule="evenodd"/><path d="M188.5 270.5 200.298 282.635" stroke="#000000" stroke-width="0.333333" stroke-miterlimit="8" fill="none" fill-rule="evenodd"/><path d="M0 0 12.5374 12.0349" stroke="#000000" stroke-width="0.333333" stroke-miterlimit="8" fill="none" fill-rule="evenodd" transform="matrix(1 0 0 -1 213.5 282.535)"/><path d="M67.5001 218C67.5001 212.753 71.7533 208.5 77.0001 208.5 82.2468 208.5 86.5001 212.753 86.5001 218 86.5001 223.247 82.2468 227.5 77.0001 227.5 71.7533 227.5 67.5001 223.247 67.5001 218Z" stroke="#000000" stroke-width="0.333333" stroke-miterlimit="8" fill="#FFC000" fill-rule="evenodd"/><path d="M39.5001 270.5C39.5001 265.53 43.7533 261.5 49.0001 261.5 54.2468 261.5 58.5001 265.53 58.5001 270.5 58.5001 275.471 54.2468 279.5 49.0001 279.5 43.7533 279.5 39.5001 275.471 39.5001 270.5Z" stroke="#000000" stroke-width="0.333333" stroke-miterlimit="8" fill="#FFC000" fill-rule="evenodd"/><path d="M116.5 258C116.5 252.753 120.753 248.5 126 248.5 131.247 248.5 135.5 252.753 135.5 258 135.5 263.247 131.247 267.5 126 267.5 120.753 267.5 116.5 263.247 116.5 258Z" stroke="#000000" stroke-width="0.333333" stroke-miterlimit="8" fill="#FFC000" fill-rule="evenodd"/><path d="M0 0 21.0167 36.436" stroke="#000000" stroke-width="0.333333" stroke-miterlimit="8" fill="none" fill-rule="evenodd" transform="matrix(-1 0 0 1 70.5167 224.5)"/><path d="M0 0 57.7933 12.6763" stroke="#000000" stroke-width="0.333333" stroke-miterlimit="8" fill="none" fill-rule="evenodd" transform="matrix(1 0 0 -1 58.5001 270.176)"/><path d="M70.5001 301C70.5001 295.753 74.7533 291.5 80.0001 291.5 85.2468 291.5 89.5001 295.753 89.5001 301 89.5001 306.247 85.2468 310.5 80.0001 310.5 74.7533 310.5 70.5001 306.247 70.5001 301Z" stroke="#000000" stroke-width="0.333333" stroke-miterlimit="8" fill="#FFC000" fill-rule="evenodd"/><path d="M56.5001 277.5 73.8208 294.249" stroke="#000000" stroke-width="0.333333" stroke-miterlimit="8" fill="none" fill-rule="evenodd"/><path d="M0 0 32.6447 29.4251" stroke="#000000" stroke-width="0.333333" stroke-miterlimit="8" fill="none" fill-rule="evenodd" transform="matrix(1 0 0 -1 86.5001 293.925)"/><path d="M80.4855 291.28 77.5001 227.5" stroke="#000000" stroke-width="0.333333" stroke-miterlimit="8" fill="none" fill-rule="evenodd"/><path d="M116.5 213C116.5 207.753 120.753 203.5 126 203.5 131.247 203.5 135.5 207.753 135.5 213 135.5 218.247 131.247 222.5 126 222.5 120.753 222.5 116.5 218.247 116.5 213Z" stroke="#000000" stroke-width="0.333333" stroke-miterlimit="8" fill="#FFC000" fill-rule="evenodd"/><path d="M0 0 63.5655 44.4544" stroke="#000000" stroke-width="0.333333" stroke-miterlimit="8" fill="none" fill-rule="evenodd" transform="matrix(1 0 0 -1 56.5001 263.954)"/><path d="M0 0 30.3325 5.25092" stroke="#000000" stroke-width="0.333333" stroke-miterlimit="8" fill="none" fill-rule="evenodd" transform="matrix(1 0 0 -1 86.5001 217.751)"/><path d="M0 0 0.23727 26.2432" stroke="#000000" stroke-width="0.333333" stroke-miterlimit="8" fill="none" fill-rule="evenodd" transform="matrix(1 0 0 -1 126.5 248.743)"/><path d="M0 0 26.4403 15.7077" stroke="#000000" stroke-width="0.333333" stroke-miterlimit="8" fill="none" fill-rule="evenodd" transform="matrix(1 0 0 -1 118.5 113.208)"/><path d="M130.5 147.5 168.431 157.646" stroke="#000000" stroke-width="0.333333" stroke-miterlimit="8" fill="none" fill-rule="evenodd"/><path d="M219.5 99.5001 237.48 176.936" stroke="#000000" stroke-width="0.333333" stroke-miterlimit="8" fill="none" fill-rule="evenodd"/><path d="M0 0 5.01974 58.3361" stroke="#000000" stroke-width="0.333333" stroke-miterlimit="8" fill="none" fill-rule="evenodd" transform="matrix(1 0 0 -1 232.5 254.836)"/><path d="M0 0 35.9643 17.6912" stroke="#000000" stroke-width="0.333333" stroke-miterlimit="8" fill="none" fill-rule="evenodd" transform="matrix(1 0 0 -1 135.5 213.191)"/><path d="M135.5 257.5 172.22 263.378" stroke="#000000" stroke-width="0.333333" stroke-miterlimit="8" fill="none" fill-rule="evenodd"/><path d="M191.5 263.5 223.663 263.601" stroke="#000000" stroke-width="0.333333" stroke-miterlimit="8" fill="none" fill-rule="evenodd"/><path d="M0 236 45.2011 0 325 0 279.799 236Z" stroke="#172C51" stroke-width="1.33333" stroke-miterlimit="8" fill="none" fill-rule="evenodd" transform="matrix(-1.83697e-16 -1 -1 1.83697e-16 261.5 344.5)"/><path d="M671.5 182.25 789 182.25 789 173.5 806.5 191 789 208.5 789 199.75 671.5 199.75Z" stroke="#172C51" stroke-width="1.33333" stroke-miterlimit="8" fill="#4486B4" fill-rule="evenodd"/><text font-family="Times New Roman,Times New Roman_MSFontService,sans-serif" font-weight="400" font-size="27" transform="translate(669.942 172)">Build</text><text font-family="Times New Roman,Times New Roman_MSFontService,sans-serif" font-weight="400" font-size="27" transform="translate(741.962 172)">Tree</text><path d="M986.5 97.0001C986.5 91.7533 990.753 87.5001 996 87.5001 1001.25 87.5001 1005.5 91.7533 1005.5 97.0001 1005.5 102.247 1001.25 106.5 996 106.5 990.753 106.5 986.5 102.247 986.5 97.0001Z" stroke="#000000" stroke-width="0.333333" stroke-miterlimit="8" fill="none" fill-rule="evenodd"/><path d="M830.5 168C830.5 162.753 834.753 158.5 840 158.5 845.247 158.5 849.5 162.753 849.5 168 849.5 173.247 845.247 177.5 840 177.5 834.753 177.5 830.5 173.247 830.5 168Z" stroke="#000000" stroke-width="0.333333" stroke-miterlimit="8" fill="#5B9BD5" fill-rule="evenodd"/><path d="M809.5 255C809.5 249.753 813.753 245.5 819 245.5 824.247 245.5 828.5 249.753 828.5 255 828.5 260.247 824.247 264.5 819 264.5 813.753 264.5 809.5 260.247 809.5 255Z" stroke="#000000" stroke-width="0.333333" stroke-miterlimit="8" fill="#5B9BD5" fill-rule="evenodd"/><path d="M831.5 255C831.5 249.753 835.529 245.5 840.5 245.5 845.471 245.5 849.5 249.753 849.5 255 849.5 260.247 845.471 264.5 840.5 264.5 835.529 264.5 831.5 260.247 831.5 255Z" stroke="#000000" stroke-width="0.333333" stroke-miterlimit="8" fill="#5B9BD5" fill-rule="evenodd"/><path d="M852.5 255C852.5 249.753 856.753 245.5 862 245.5 867.247 245.5 871.5 249.753 871.5 255 871.5 260.247 867.247 264.5 862 264.5 856.753 264.5 852.5 260.247 852.5 255Z" stroke="#000000" stroke-width="0.333333" stroke-miterlimit="8" fill="#5B9BD5" fill-rule="evenodd"/><path d="M0 0 14.9241 70.6589" stroke="#000000" stroke-width="0.333333" stroke-miterlimit="8" fill="none" fill-rule="evenodd" transform="matrix(1 0 0 -1 818.5 245.159)"/><path d="M840.792 245.391 840.5 177.5" stroke="#000000" stroke-width="0.333333" stroke-miterlimit="8" fill="none" fill-rule="evenodd"/><path d="M861.328 245.159 846.5 174.5" stroke="#000000" stroke-width="0.333333" stroke-miterlimit="8" fill="none" fill-rule="evenodd"/><path d="M941.5 254C941.5 248.753 945.753 244.5 951 244.5 956.247 244.5 960.5 248.753 960.5 254 960.5 259.247 956.247 263.5 951 263.5 945.753 263.5 941.5 259.247 941.5 254Z" stroke="#000000" stroke-width="0.333333" stroke-miterlimit="8" fill="#ED7D31" fill-rule="evenodd"/><path d="M908.5 168C908.5 162.753 912.753 158.5 918 158.5 923.247 158.5 927.5 162.753 927.5 168 927.5 173.247 923.247 177.5 918 177.5 912.753 177.5 908.5 173.247 908.5 168Z" stroke="#000000" stroke-width="0.333333" stroke-miterlimit="8" fill="#ED7D31" fill-rule="evenodd"/><path d="M878.5 254C878.5 248.753 882.753 244.5 888 244.5 893.247 244.5 897.5 248.753 897.5 254 897.5 259.247 893.247 263.5 888 263.5 882.753 263.5 878.5 259.247 878.5 254Z" stroke="#000000" stroke-width="0.333333" stroke-miterlimit="8" fill="#ED7D31" fill-rule="evenodd"/><path d="M899.5 254C899.5 248.753 903.753 244.5 909 244.5 914.247 244.5 918.5 248.753 918.5 254 918.5 259.247 914.247 263.5 909 263.5 903.753 263.5 899.5 259.247 899.5 254Z" stroke="#000000" stroke-width="0.333333" stroke-miterlimit="8" fill="#ED7D31" fill-rule="evenodd"/><path d="M920.5 254C920.5 248.753 924.753 244.5 930 244.5 935.247 244.5 939.5 248.753 939.5 254 939.5 259.247 935.247 263.5 930 263.5 924.753 263.5 920.5 259.247 920.5 254Z" stroke="#000000" stroke-width="0.333333" stroke-miterlimit="8" fill="#ED7D31" fill-rule="evenodd"/><path d="M0 0 22.9733 69.8556" stroke="#000000" stroke-width="0.333333" stroke-miterlimit="8" fill="none" fill-rule="evenodd" transform="matrix(1 0 0 -1 887.5 244.356)"/><path d="M0 0 8.68714 67.0882" stroke="#000000" stroke-width="0.333333" stroke-miterlimit="8" fill="none" fill-rule="evenodd" transform="matrix(1 0 0 -1 908.5 244.588)"/><path d="M929.553 244.588 917.5 177.5" stroke="#000000" stroke-width="0.333333" stroke-miterlimit="8" fill="none" fill-rule="evenodd"/><path d="M951.09 244.356 924.5 174.5" stroke="#000000" stroke-width="0.333333" stroke-miterlimit="8" fill="none" fill-rule="evenodd"/><path d="M987.5 168C987.5 162.753 991.753 158.5 997 158.5 1002.25 158.5 1006.5 162.753 1006.5 168 1006.5 173.247 1002.25 177.5 997 177.5 991.753 177.5 987.5 173.247 987.5 168Z" stroke="#000000" stroke-width="0.333333" stroke-miterlimit="8" fill="#70AD47" fill-rule="evenodd"/><path d="M967.5 255C967.5 249.753 971.753 245.5 977 245.5 982.247 245.5 986.5 249.753 986.5 255 986.5 260.247 982.247 264.5 977 264.5 971.753 264.5 967.5 260.247 967.5 255Z" stroke="#000000" stroke-width="0.333333" stroke-miterlimit="8" fill="#70AD47" fill-rule="evenodd"/><path d="M988.5 255C988.5 249.753 992.753 245.5 998 245.5 1003.25 245.5 1007.5 249.753 1007.5 255 1007.5 260.247 1003.25 264.5 998 264.5 992.753 264.5 988.5 260.247 988.5 255Z" stroke="#000000" stroke-width="0.333333" stroke-miterlimit="8" fill="#70AD47" fill-rule="evenodd"/><path d="M1009.5 255C1009.5 249.753 1013.75 245.5 1019 245.5 1024.25 245.5 1028.5 249.753 1028.5 255 1028.5 260.247 1024.25 264.5 1019 264.5 1013.75 264.5 1009.5 260.247 1009.5 255Z" stroke="#000000" stroke-width="0.333333" stroke-miterlimit="8" fill="#70AD47" fill-rule="evenodd"/><path d="M0 0 13.2818 70.979" stroke="#000000" stroke-width="0.333333" stroke-miterlimit="8" fill="none" fill-rule="evenodd" transform="matrix(1 0 0 -1 976.5 245.479)"/><path d="M997.755 245.712 996.5 177.5" stroke="#000000" stroke-width="0.333333" stroke-miterlimit="8" fill="none" fill-rule="evenodd"/><path d="M1019.02 245.479 1003.5 174.5" stroke="#000000" stroke-width="0.333333" stroke-miterlimit="8" fill="none" fill-rule="evenodd"/><path d="M1098.5 255C1098.5 249.753 1102.75 245.5 1108 245.5 1113.25 245.5 1117.5 249.753 1117.5 255 1117.5 260.247 1113.25 264.5 1108 264.5 1102.75 264.5 1098.5 260.247 1098.5 255Z" stroke="#000000" stroke-width="0.333333" stroke-miterlimit="8" fill="#BDD0E9" fill-rule="evenodd"/><path d="M1064.5 168C1064.5 162.753 1068.75 158.5 1074 158.5 1079.25 158.5 1083.5 162.753 1083.5 168 1083.5 173.247 1079.25 177.5 1074 177.5 1068.75 177.5 1064.5 173.247 1064.5 168Z" stroke="#000000" stroke-width="0.333333" stroke-miterlimit="8" fill="#BDD0E9" fill-rule="evenodd"/><path d="M1035.5 255C1035.5 249.753 1039.75 245.5 1045 245.5 1050.25 245.5 1054.5 249.753 1054.5 255 1054.5 260.247 1050.25 264.5 1045 264.5 1039.75 264.5 1035.5 260.247 1035.5 255Z" stroke="#000000" stroke-width="0.333333" stroke-miterlimit="8" fill="#BDD0E9" fill-rule="evenodd"/><path d="M1056.5 255C1056.5 249.753 1060.75 245.5 1066 245.5 1071.25 245.5 1075.5 249.753 1075.5 255 1075.5 260.247 1071.25 264.5 1066 264.5 1060.75 264.5 1056.5 260.247 1056.5 255Z" stroke="#000000" stroke-width="0.333333" stroke-miterlimit="8" fill="#BDD0E9" fill-rule="evenodd"/><path d="M1077.5 255C1077.5 249.753 1081.75 245.5 1087 245.5 1092.25 245.5 1096.5 249.753 1096.5 255 1096.5 260.247 1092.25 264.5 1087 264.5 1081.75 264.5 1077.5 260.247 1077.5 255Z" stroke="#000000" stroke-width="0.333333" stroke-miterlimit="8" fill="#BDD0E9" fill-rule="evenodd"/><path d="M0 0 22.8294 70.479" stroke="#000000" stroke-width="0.333333" stroke-miterlimit="8" fill="none" fill-rule="evenodd" transform="matrix(1 0 0 -1 1044.5 245.979)"/><path d="M0 0 8.43391 67.7115" stroke="#000000" stroke-width="0.333333" stroke-miterlimit="8" fill="none" fill-rule="evenodd" transform="matrix(1 0 0 -1 1065.5 245.212)"/><path d="M1087.28 245.212 1074.5 177.5" stroke="#000000" stroke-width="0.333333" stroke-miterlimit="8" fill="none" fill-rule="evenodd"/><path d="M1107.22 245.979 1080.5 175.5" stroke="#000000" stroke-width="0.333333" stroke-miterlimit="8" fill="none" fill-rule="evenodd"/><path d="M1185.5 255C1185.5 249.753 1189.75 245.5 1195 245.5 1200.25 245.5 1204.5 249.753 1204.5 255 1204.5 260.247 1200.25 264.5 1195 264.5 1189.75 264.5 1185.5 260.247 1185.5 255Z" stroke="#000000" stroke-width="0.333333" stroke-miterlimit="8" fill="#FFC000" fill-rule="evenodd"/><path d="M1163.5 168C1163.5 162.753 1167.53 158.5 1172.5 158.5 1177.47 158.5 1181.5 162.753 1181.5 168 1181.5 173.247 1177.47 177.5 1172.5 177.5 1167.53 177.5 1163.5 173.247 1163.5 168Z" stroke="#000000" stroke-width="0.333333" stroke-miterlimit="8" fill="#FFC000" fill-rule="evenodd"/><path d="M1122.5 255C1122.5 249.753 1126.75 245.5 1132 245.5 1137.25 245.5 1141.5 249.753 1141.5 255 1141.5 260.247 1137.25 264.5 1132 264.5 1126.75 264.5 1122.5 260.247 1122.5 255Z" stroke="#000000" stroke-width="0.333333" stroke-miterlimit="8" fill="#FFC000" fill-rule="evenodd"/><path d="M1143.5 255C1143.5 249.753 1147.75 245.5 1153 245.5 1158.25 245.5 1162.5 249.753 1162.5 255 1162.5 260.247 1158.25 264.5 1153 264.5 1147.75 264.5 1143.5 260.247 1143.5 255Z" stroke="#000000" stroke-width="0.333333" stroke-miterlimit="8" fill="#FFC000" fill-rule="evenodd"/><path d="M1164.5 255C1164.5 249.753 1168.75 245.5 1174 245.5 1179.25 245.5 1183.5 249.753 1183.5 255 1183.5 260.247 1179.25 264.5 1174 264.5 1168.75 264.5 1164.5 260.247 1164.5 255Z" stroke="#000000" stroke-width="0.333333" stroke-miterlimit="8" fill="#FFC000" fill-rule="evenodd"/><path d="M0 0 30.8291 77.327" stroke="#000000" stroke-width="0.333333" stroke-miterlimit="8" fill="none" fill-rule="evenodd" transform="matrix(1 0 0 -1 1132.5 245.827)"/><path d="M0 0 12.4477 70.6457" stroke="#000000" stroke-width="0.333333" stroke-miterlimit="8" fill="none" fill-rule="evenodd" transform="matrix(1 0 0 -1 1153.5 245.146)"/><path d="M1174.27 245.378 1172.5 177.5" stroke="#000000" stroke-width="0.333333" stroke-miterlimit="8" fill="none" fill-rule="evenodd"/><path d="M1195.73 245.146 1179.5 174.5" stroke="#000000" stroke-width="0.333333" stroke-miterlimit="8" fill="none" fill-rule="evenodd"/><path d="M1206.5 255C1206.5 249.753 1210.75 245.5 1216 245.5 1221.25 245.5 1225.5 249.753 1225.5 255 1225.5 260.247 1221.25 264.5 1216 264.5 1210.75 264.5 1206.5 260.247 1206.5 255Z" stroke="#000000" stroke-width="0.333333" stroke-miterlimit="8" fill="#FFC000" fill-rule="evenodd"/><path d="M1215.46 245.827 1181.5 168.5" stroke="#000000" stroke-width="0.333333" stroke-miterlimit="8" fill="none" fill-rule="evenodd"/><path d="M0 0 146.187 61.7856" stroke="#000000" stroke-width="0.333333" stroke-miterlimit="8" fill="none" fill-rule="evenodd" transform="matrix(1 0 0 -1 840.5 158.286)"/><path d="M0 0 71.5078 55.1043" stroke="#000000" stroke-width="0.333333" stroke-miterlimit="8" fill="none" fill-rule="evenodd" transform="matrix(1 0 0 -1 917.5 158.604)"/><path d="M996.486 158.837 995.5 106.5" stroke="#000000" stroke-width="0.333333" stroke-miterlimit="8" fill="none" fill-rule="evenodd"/><path d="M1074.33 159.104 1002.5 103.5" stroke="#000000" stroke-width="0.333333" stroke-miterlimit="8" fill="none" fill-rule="evenodd"/><path d="M1005.5 96.5001 1172.71 158.619" stroke="#000000" stroke-width="0.333333" stroke-miterlimit="8" fill="none" fill-rule="evenodd"/><rect x="16.5001" y="355.5" width="1225" height="337" stroke="#172C51" stroke-width="1.33333" stroke-miterlimit="8" stroke-dasharray="5.33333 4" fill="none"/><path d="M272.5 527.25 390 527.25 390 518.5 407.5 536 390 553.5 390 544.75 272.5 544.75Z" stroke="#172C51" stroke-width="1.33333" stroke-miterlimit="8" fill="#4486B4" fill-rule="evenodd"/><text font-family="Times New Roman,Times New Roman_MSFontService,sans-serif" font-weight="400" font-size="27" transform="translate(279.237 517)">Compress</text><path d="M103.5 463C103.5 457.753 107.753 453.5 113 453.5 118.247 453.5 122.5 457.753 122.5 463 122.5 468.247 118.247 472.5 113 472.5 107.753 472.5 103.5 468.247 103.5 463Z" stroke="#000000" stroke-width="0.333333" stroke-miterlimit="8" fill="#5B9BD5" fill-rule="evenodd"/><path d="M69.5001 514C69.5001 508.753 73.7533 504.5 79.0001 504.5 84.2468 504.5 88.5001 508.753 88.5001 514 88.5001 519.247 84.2468 523.5 79.0001 523.5 73.7533 523.5 69.5001 519.247 69.5001 514Z" stroke="#000000" stroke-width="0.333333" stroke-miterlimit="8" fill="#5B9BD5" fill-rule="evenodd"/><path d="M111.5 490C111.5 484.753 115.753 480.5 121 480.5 126.247 480.5 130.5 484.753 130.5 490 130.5 495.247 126.247 499.5 121 499.5 115.753 499.5 111.5 495.247 111.5 490Z" stroke="#000000" stroke-width="0.333333" stroke-miterlimit="8" fill="#5B9BD5" fill-rule="evenodd"/><path d="M0 0 27.2505 34.978" stroke="#000000" stroke-width="0.333333" stroke-miterlimit="8" fill="none" fill-rule="evenodd" transform="matrix(-1 0 0 1 105.751 469.5)"/><path d="M0 0 26.3198 16.5464" stroke="#000000" stroke-width="0.333333" stroke-miterlimit="8" fill="none" fill-rule="evenodd" transform="matrix(1 0 0 -1 88.5001 514.046)"/><path d="M119.5 469.5 121.337 481.25" stroke="#000000" stroke-width="0.333333" stroke-miterlimit="8" fill="none" fill-rule="evenodd"/><path d="M165.5 507C165.5 501.753 169.753 497.5 175 497.5 180.247 497.5 184.5 501.753 184.5 507 184.5 512.247 180.247 516.5 175 516.5 169.753 516.5 165.5 512.247 165.5 507Z" stroke="#000000" stroke-width="0.333333" stroke-miterlimit="8" fill="#70AD47" fill-rule="evenodd"/><path d="M172.5 538C172.5 532.753 176.529 528.5 181.5 528.5 186.471 528.5 190.5 532.753 190.5 538 190.5 543.247 186.471 547.5 181.5 547.5 176.529 547.5 172.5 543.247 172.5 538Z" stroke="#000000" stroke-width="0.333333" stroke-miterlimit="8" fill="#70AD47" fill-rule="evenodd"/><path d="M228.5 530C228.5 524.753 232.753 520.5 238 520.5 243.247 520.5 247.5 524.753 247.5 530 247.5 535.247 243.247 539.5 238 539.5 232.753 539.5 228.5 535.247 228.5 530Z" stroke="#000000" stroke-width="0.333333" stroke-miterlimit="8" fill="#70AD47" fill-rule="evenodd"/><path d="M175.5 516.5 181.793 528.447" stroke="#000000" stroke-width="0.333333" stroke-miterlimit="8" fill="none" fill-rule="evenodd"/><path d="M0 0 37.701 8.4231" stroke="#000000" stroke-width="0.333333" stroke-miterlimit="8" fill="none" fill-rule="evenodd" transform="matrix(1 0 0 -1 190.5 537.923)"/><path d="M184.5 507.5 231.262 523.241" stroke="#000000" stroke-width="0.333333" stroke-miterlimit="8" fill="none" fill-rule="evenodd"/><path d="M160.472 404.498C159.09 399.466 162.049 394.266 167.081 392.884 172.114 391.502 177.313 394.461 178.695 399.493 180.077 404.525 177.118 409.725 172.086 411.107 167.054 412.489 161.854 409.53 160.472 404.498Z" stroke="#000000" stroke-width="0.333333" stroke-miterlimit="8" fill="#ED7D31" fill-rule="evenodd"/><path d="M142.5 433.5C142.5 428.53 146.753 424.5 152 424.5 157.247 424.5 161.5 428.53 161.5 433.5 161.5 438.471 157.247 442.5 152 442.5 146.753 442.5 142.5 438.471 142.5 433.5Z" stroke="#000000" stroke-width="0.333333" stroke-miterlimit="8" fill="#ED7D31" fill-rule="evenodd"/><path d="M210.5 433C210.5 427.753 214.753 423.5 220 423.5 225.247 423.5 229.5 427.753 229.5 433 229.5 438.247 225.247 442.5 220 442.5 214.753 442.5 210.5 438.247 210.5 433Z" stroke="#000000" stroke-width="0.333333" stroke-miterlimit="8" fill="#ED7D31" fill-rule="evenodd"/><path d="M0 0 6.32966 16.1068" stroke="#000000" stroke-width="0.333333" stroke-miterlimit="8" fill="none" fill-rule="evenodd" transform="matrix(-1 0 0 1 165.83 410.5)"/><path d="M0 0 48.79 0.134068" stroke="#000000" stroke-width="0.333333" stroke-miterlimit="8" fill="none" fill-rule="evenodd" transform="matrix(1 0 0 -1 161.5 433.634)"/><path d="M178.5 407.5 213.61 427.012" stroke="#000000" stroke-width="0.333333" stroke-miterlimit="8" fill="none" fill-rule="evenodd"/><path d="M184.5 472C184.5 466.753 188.753 462.5 194 462.5 199.247 462.5 203.5 466.753 203.5 472 203.5 477.247 199.247 481.5 194 481.5 188.753 481.5 184.5 477.247 184.5 472Z" stroke="#000000" stroke-width="0.333333" stroke-miterlimit="8" fill="#ED7D31" fill-rule="evenodd"/><path d="M159.5 440.5 188.043 465.582" stroke="#000000" stroke-width="0.333333" stroke-miterlimit="8" fill="none" fill-rule="evenodd"/><path d="M0 0 12.4193 25.2162" stroke="#000000" stroke-width="0.333333" stroke-miterlimit="8" fill="none" fill-rule="evenodd" transform="matrix(1 0 0 -1 200.5 465.716)"/><path d="M194.219 462.385 172.5 411.5" stroke="#000000" stroke-width="0.333333" stroke-miterlimit="8" fill="none" fill-rule="evenodd"/><path d="M197.5 584C197.5 578.753 201.753 574.5 207 574.5 212.247 574.5 216.5 578.753 216.5 584 216.5 589.247 212.247 593.5 207 593.5 201.753 593.5 197.5 589.247 197.5 584Z" stroke="#000000" stroke-width="0.333333" stroke-miterlimit="8" fill="#BDD0E9" fill-rule="evenodd"/><path d="M172.5 607C172.5 601.753 176.753 597.5 182 597.5 187.247 597.5 191.5 601.753 191.5 607 191.5 612.247 187.247 616.5 182 616.5 176.753 616.5 172.5 612.247 172.5 607Z" stroke="#000000" stroke-width="0.333333" stroke-miterlimit="8" fill="#BDD0E9" fill-rule="evenodd"/><path d="M223.5 607C223.5 601.753 227.753 597.5 233 597.5 238.247 597.5 242.5 601.753 242.5 607 242.5 612.247 238.247 616.5 233 616.5 227.753 616.5 223.5 612.247 223.5 607Z" stroke="#000000" stroke-width="0.333333" stroke-miterlimit="8" fill="#BDD0E9" fill-rule="evenodd"/><path d="M0 0 11.9106 9.36987" stroke="#000000" stroke-width="0.333333" stroke-miterlimit="8" fill="none" fill-rule="evenodd" transform="matrix(-1 0 0 1 200.411 590.5)"/><path d="M213.5 590.5 225.924 599.97" stroke="#000000" stroke-width="0.333333" stroke-miterlimit="8" fill="none" fill-rule="evenodd"/><path d="M197.5 632C197.5 626.753 201.753 622.5 207 622.5 212.247 622.5 216.5 626.753 216.5 632 216.5 637.247 212.247 641.5 207 641.5 201.753 641.5 197.5 637.247 197.5 632Z" stroke="#000000" stroke-width="0.333333" stroke-miterlimit="8" fill="#BDD0E9" fill-rule="evenodd"/><path d="M188.5 613.5 200.298 625.635" stroke="#000000" stroke-width="0.333333" stroke-miterlimit="8" fill="none" fill-rule="evenodd"/><path d="M0 0 12.5374 12.0349" stroke="#000000" stroke-width="0.333333" stroke-miterlimit="8" fill="none" fill-rule="evenodd" transform="matrix(1 0 0 -1 213.5 625.535)"/><path d="M67.5001 561C67.5001 555.753 71.7533 551.5 77.0001 551.5 82.2468 551.5 86.5001 555.753 86.5001 561 86.5001 566.247 82.2468 570.5 77.0001 570.5 71.7533 570.5 67.5001 566.247 67.5001 561Z" stroke="#000000" stroke-width="0.333333" stroke-miterlimit="8" fill="#FFC000" fill-rule="evenodd"/><path d="M40.5001 614C40.5001 608.753 44.7533 604.5 50.0001 604.5 55.2468 604.5 59.5001 608.753 59.5001 614 59.5001 619.247 55.2468 623.5 50.0001 623.5 44.7533 623.5 40.5001 619.247 40.5001 614Z" stroke="#000000" stroke-width="0.333333" stroke-miterlimit="8" fill="#FFC000" fill-rule="evenodd"/><path d="M116.5 601C116.5 595.753 120.753 591.5 126 591.5 131.247 591.5 135.5 595.753 135.5 601 135.5 606.247 131.247 610.5 126 610.5 120.753 610.5 116.5 606.247 116.5 601Z" stroke="#000000" stroke-width="0.333333" stroke-miterlimit="8" fill="#FFC000" fill-rule="evenodd"/><path d="M0 0 21.0167 36.436" stroke="#000000" stroke-width="0.333333" stroke-miterlimit="8" fill="none" fill-rule="evenodd" transform="matrix(-1 0 0 1 70.5167 567.5)"/><path d="M0 0 57.7933 12.6763" stroke="#000000" stroke-width="0.333333" stroke-miterlimit="8" fill="none" fill-rule="evenodd" transform="matrix(1 0 0 -1 59.5001 613.176)"/><path d="M70.5001 644C70.5001 638.753 74.7533 634.5 80.0001 634.5 85.2468 634.5 89.5001 638.753 89.5001 644 89.5001 649.247 85.2468 653.5 80.0001 653.5 74.7533 653.5 70.5001 649.247 70.5001 644Z" stroke="#000000" stroke-width="0.333333" stroke-miterlimit="8" fill="#FFC000" fill-rule="evenodd"/><path d="M56.5001 620.5 73.8208 637.249" stroke="#000000" stroke-width="0.333333" stroke-miterlimit="8" fill="none" fill-rule="evenodd"/><path d="M0 0 32.6447 29.4251" stroke="#000000" stroke-width="0.333333" stroke-miterlimit="8" fill="none" fill-rule="evenodd" transform="matrix(1 0 0 -1 87.5001 636.925)"/><path d="M80.4855 634.28 77.5001 570.5" stroke="#000000" stroke-width="0.333333" stroke-miterlimit="8" fill="none" fill-rule="evenodd"/><path d="M117.5 556C117.5 550.753 121.753 546.5 127 546.5 132.247 546.5 136.5 550.753 136.5 556 136.5 561.247 132.247 565.5 127 565.5 121.753 565.5 117.5 561.247 117.5 556Z" stroke="#000000" stroke-width="0.333333" stroke-miterlimit="8" fill="#FFC000" fill-rule="evenodd"/><path d="M0 0 63.5655 44.4544" stroke="#000000" stroke-width="0.333333" stroke-miterlimit="8" fill="none" fill-rule="evenodd" transform="matrix(1 0 0 -1 56.5001 606.954)"/><path d="M0 0 30.3325 5.25092" stroke="#000000" stroke-width="0.333333" stroke-miterlimit="8" fill="none" fill-rule="evenodd" transform="matrix(1 0 0 -1 86.5001 560.751)"/><path d="M0 0 0.23727 26.2432" stroke="#000000" stroke-width="0.333333" stroke-miterlimit="8" fill="none" fill-rule="evenodd" transform="matrix(1 0 0 -1 126.5 591.743)"/><path d="M0 0 26.4403 15.7077" stroke="#000000" stroke-width="0.333333" stroke-miterlimit="8" fill="none" fill-rule="evenodd" transform="matrix(1 0 0 -1 119.5 456.208)"/><path d="M130.5 490.5 168.431 500.646" stroke="#000000" stroke-width="0.333333" stroke-miterlimit="8" fill="none" fill-rule="evenodd"/><path d="M220.5 442.5 238.48 519.936" stroke="#000000" stroke-width="0.333333" stroke-miterlimit="8" fill="none" fill-rule="evenodd"/><path d="M0 0 5.01974 58.3361" stroke="#000000" stroke-width="0.333333" stroke-miterlimit="8" fill="none" fill-rule="evenodd" transform="matrix(1 0 0 -1 233.5 597.836)"/><path d="M0 0 35.9643 17.6912" stroke="#000000" stroke-width="0.333333" stroke-miterlimit="8" fill="none" fill-rule="evenodd" transform="matrix(1 0 0 -1 136.5 556.191)"/><path d="M135.5 600.5 172.22 606.378" stroke="#000000" stroke-width="0.333333" stroke-miterlimit="8" fill="none" fill-rule="evenodd"/><path d="M191.5 606.5 223.663 606.601" stroke="#000000" stroke-width="0.333333" stroke-miterlimit="8" fill="none" fill-rule="evenodd"/><path d="M62.8483 517.461C52.2327 504.126 60.1083 480.195 80.439 464.011 100.77 447.827 125.857 445.517 136.472 458.853 147.088 472.188 139.212 496.118 118.882 512.303 98.5509 528.487 73.464 530.796 62.8483 517.461Z" stroke="#172C51" stroke-width="0.666667" stroke-miterlimit="8" stroke-dasharray="5.33333 2" fill="none" fill-rule="evenodd"/><path d="M40.2595 648.413C20.4412 629.107 27.3174 589.906 55.6178 560.854 83.9182 531.801 122.926 523.9 142.744 543.205 162.563 562.511 155.686 601.712 127.386 630.765 99.0856 659.817 60.0777 667.718 40.2595 648.413Z" stroke="#172C51" stroke-width="0.666667" stroke-miterlimit="8" stroke-dasharray="5.33333 2" fill="none" fill-rule="evenodd"/><path d="M202.986 644.709C182.037 642.414 166.856 624.1 169.079 603.803 171.303 583.506 190.088 568.912 211.038 571.207 231.987 573.502 247.168 591.816 244.945 612.113 242.721 632.41 223.936 647.004 202.986 644.709Z" stroke="#172C51" stroke-width="0.666667" stroke-miterlimit="8" stroke-dasharray="5.33333 2" fill="none" fill-rule="evenodd"/><path d="M150.665 515.469C153.908 498.147 178.7 488.253 206.041 493.37 233.382 498.487 252.918 516.679 249.676 534.001 246.434 551.323 221.641 561.218 194.3 556.1 166.959 550.983 147.423 532.792 150.665 515.469Z" stroke="#172C51" stroke-width="0.666667" stroke-miterlimit="8" stroke-dasharray="5.33333 2" fill="none" fill-rule="evenodd"/><path d="M227.651 474.903C211.827 491.994 180.811 489.009 158.374 468.235 135.937 447.462 130.576 416.766 146.4 399.676 162.223 382.585 193.24 385.57 215.677 406.344 238.114 427.117 243.475 457.813 227.651 474.903Z" stroke="#172C51" stroke-width="0.666667" stroke-miterlimit="8" stroke-dasharray="5.33333 2" fill="none" fill-rule="evenodd"/><path d="M0 237 45.3927 0 325 0 279.607 237Z" stroke="#172C51" stroke-width="1.33333" stroke-miterlimit="8" fill="none" fill-rule="evenodd" transform="matrix(-1.83697e-16 -1 -1 1.83697e-16 260.5 687.5)"/><path d="M502.5 447C502.5 441.753 506.753 437.5 512 437.5 517.247 437.5 521.5 441.753 521.5 447 521.5 452.247 517.247 456.5 512 456.5 506.753 456.5 502.5 452.247 502.5 447Z" stroke="#000000" stroke-width="0.333333" stroke-miterlimit="8" fill="#ED7D31" fill-rule="evenodd"/><path d="M438.5 468C438.5 462.753 442.753 458.5 448 458.5 453.247 458.5 457.5 462.753 457.5 468 457.5 473.247 453.247 477.5 448 477.5 442.753 477.5 438.5 473.247 438.5 468Z" stroke="#000000" stroke-width="0.333333" stroke-miterlimit="8" fill="#5B9BD5" fill-rule="evenodd"/><path d="M465.5 568C465.5 562.753 469.753 558.5 475 558.5 480.247 558.5 484.5 562.753 484.5 568 484.5 573.247 480.247 577.5 475 577.5 469.753 577.5 465.5 573.247 465.5 568Z" stroke="#000000" stroke-width="0.333333" stroke-miterlimit="8" fill="#FFC000" fill-rule="evenodd"/><path d="M500.5 509C500.5 503.753 504.753 499.5 510 499.5 515.247 499.5 519.5 503.753 519.5 509 519.5 514.247 515.247 518.5 510 518.5 504.753 518.5 500.5 514.247 500.5 509Z" stroke="#000000" stroke-width="0.333333" stroke-miterlimit="8" fill="#70AD47" fill-rule="evenodd"/><path d="M530.5 580C530.5 574.753 534.753 570.5 540 570.5 545.247 570.5 549.5 574.753 549.5 580 549.5 585.247 545.247 589.5 540 589.5 534.753 589.5 530.5 585.247 530.5 580Z" stroke="#000000" stroke-width="0.333333" stroke-miterlimit="8" fill="#BDD0E9" fill-rule="evenodd"/><path d="M0 0 50.2062 7.91569" stroke="#000000" stroke-width="0.333333" stroke-miterlimit="8" fill="none" fill-rule="evenodd" transform="matrix(1 0 0 -1 455.5 461.416)"/><path d="M455.5 475.5 501.339 509.086" stroke="#000000" stroke-width="0.333333" stroke-miterlimit="8" fill="none" fill-rule="evenodd"/><path d="M511.5 456.5 516.582 501.915" stroke="#000000" stroke-width="0.333333" stroke-miterlimit="8" fill="none" fill-rule="evenodd"/><path d="M0 0 22.2477 45.6558" stroke="#000000" stroke-width="0.333333" stroke-miterlimit="8" fill="none" fill-rule="evenodd" transform="matrix(1 0 0 -1 481.5 561.156)"/><path d="M481.5 574.5 530.51 580.21" stroke="#000000" stroke-width="0.333333" stroke-miterlimit="8" fill="none" fill-rule="evenodd"/><path d="M517.5 515.5 540.349 570.779" stroke="#000000" stroke-width="0.333333" stroke-miterlimit="8" fill="none" fill-rule="evenodd"/><path d="M0 151 28.921 0 218 0 189.079 151Z" stroke="#172C51" stroke-width="1.33333" stroke-miterlimit="8" fill="none" fill-rule="evenodd" transform="matrix(-1.83697e-16 -1 -1 1.83697e-16 567.5 626.5)"/><path d="M236.5 442.5 502.465 447.163" stroke="#ED7D31" stroke-width="0.333333" stroke-linecap="square" stroke-miterlimit="8" stroke-dasharray="1 0.333333" fill="none" fill-rule="evenodd"/><path d="M0 0 299.126 16.5627" stroke="#4472C4" stroke-width="0.333333" stroke-linecap="square" stroke-miterlimit="8" stroke-dasharray="1 0.333333" fill="none" fill-rule="evenodd" transform="matrix(1 0 0 -1 139.5 485.063)"/><path d="M206.5 493.5 500.836 508.343" stroke="#70AD47" stroke-width="0.333333" stroke-linecap="square" stroke-miterlimit="8" stroke-dasharray="1 0.333333" fill="none" fill-rule="evenodd"/><path d="M0 0 290.678 20.1252" stroke="#BDD0E9" stroke-width="0.333333" stroke-linecap="square" stroke-miterlimit="8" stroke-dasharray="1 0.333333" fill="none" fill-rule="evenodd" transform="matrix(1 0 0 -1 242.5 606.625)"/><path d="M0 0 311.657 16.098" stroke="#FFC000" stroke-width="0.333333" stroke-linecap="square" stroke-miterlimit="8" stroke-dasharray="1 0.333333" fill="none" fill-rule="evenodd" transform="matrix(1 0 0 -1 153.5 583.598)"/><path d="M582.5 528.5 699.5 528.5 699.5 519.5 717.5 537.5 699.5 555.5 699.5 546.5 582.5 546.5Z" stroke="#172C51" stroke-width="1.33333" stroke-miterlimit="8" fill="#4486B4" fill-rule="evenodd"/><text font-family="Times New Roman,Times New Roman_MSFontService,sans-serif" font-weight="400" font-size="27" transform="translate(611.034 520)">Merge</text><path d="M814.5 443C814.5 437.753 818.753 433.5 824 433.5 829.247 433.5 833.5 437.753 833.5 443 833.5 448.247 829.247 452.5 824 452.5 818.753 452.5 814.5 448.247 814.5 443Z" stroke="#000000" stroke-width="0.333333" stroke-miterlimit="8" fill="#ED7D31" fill-rule="evenodd"/><path d="M753.5 467C753.5 461.753 757.529 457.5 762.5 457.5 767.471 457.5 771.5 461.753 771.5 467 771.5 472.247 767.471 476.5 762.5 476.5 757.529 476.5 753.5 472.247 753.5 467Z" stroke="#000000" stroke-width="0.333333" stroke-miterlimit="8" fill="#5B9BD5" fill-rule="evenodd"/><path d="M778.5 567C778.5 561.753 782.753 557.5 788 557.5 793.247 557.5 797.5 561.753 797.5 567 797.5 572.247 793.247 576.5 788 576.5 782.753 576.5 778.5 572.247 778.5 567Z" stroke="#000000" stroke-width="0.333333" stroke-miterlimit="8" fill="#FFC000" fill-rule="evenodd"/><path d="M814.5 507.5C814.5 502.53 818.753 498.5 824 498.5 829.247 498.5 833.5 502.53 833.5 507.5 833.5 512.471 829.247 516.5 824 516.5 818.753 516.5 814.5 512.471 814.5 507.5Z" stroke="#000000" stroke-width="0.333333" stroke-miterlimit="8" fill="#70AD47" fill-rule="evenodd"/><path d="M844.5 579C844.5 573.753 848.529 569.5 853.5 569.5 858.471 569.5 862.5 573.753 862.5 579 862.5 584.247 858.471 588.5 853.5 588.5 848.529 588.5 844.5 584.247 844.5 579Z" stroke="#000000" stroke-width="0.333333" stroke-miterlimit="8" fill="#BDD0E9" fill-rule="evenodd"/><path d="M0 0 48.0045 10.9979" stroke="#000000" stroke-width="0.333333" stroke-miterlimit="8" fill="none" fill-rule="evenodd" transform="matrix(1 0 0 -1 769.5 460.498)"/><path d="M769.5 473.5 814.899 507.086" stroke="#000000" stroke-width="0.333333" stroke-miterlimit="8" fill="none" fill-rule="evenodd"/><path d="M823.5 452.5 830.343 500.998" stroke="#000000" stroke-width="0.333333" stroke-miterlimit="8" fill="none" fill-rule="evenodd"/><path d="M0 0 22.2477 45.6558" stroke="#000000" stroke-width="0.333333" stroke-miterlimit="8" fill="none" fill-rule="evenodd" transform="matrix(1 0 0 -1 795.5 560.156)"/><path d="M795.5 573.5 844.51 579.21" stroke="#000000" stroke-width="0.333333" stroke-miterlimit="8" fill="none" fill-rule="evenodd"/><path d="M830.5 514.5 853.349 569.779" stroke="#000000" stroke-width="0.333333" stroke-miterlimit="8" fill="none" fill-rule="evenodd"/><path d="M0 151 28.921 0 219 0 190.079 151Z" stroke="#172C51" stroke-width="1.33333" stroke-miterlimit="8" fill="none" fill-rule="evenodd" transform="matrix(-1.83697e-16 -1 -1 1.83697e-16 881.5 623.5)"/><path d="M825.527 429.997C853.346 443.311 866.442 473.862 854.778 498.236 843.113 522.61 811.105 531.576 783.286 518.263 755.466 504.949 742.37 474.398 754.035 450.024 765.699 425.65 797.707 416.684 825.527 429.997Z" stroke="#172C51" stroke-width="0.666667" stroke-miterlimit="8" stroke-dasharray="5.33333 2" fill="none" fill-rule="evenodd"/><path d="M824.533 548.582C854.477 555.968 876.332 571.761 873.348 583.858 870.365 595.955 843.672 599.774 813.728 592.389 783.785 585.003 761.929 569.21 764.913 557.113 767.896 545.016 794.589 541.197 824.533 548.582Z" stroke="#172C51" stroke-width="0.666667" stroke-miterlimit="8" stroke-dasharray="5.33333 2" fill="none" fill-rule="evenodd"/><path d="M892.5 528.25 1010 528.25 1010 519.5 1027.5 537 1010 554.5 1010 545.75 892.5 545.75Z" stroke="#172C51" stroke-width="1.33333" stroke-miterlimit="8" fill="#4486B4" fill-rule="evenodd"/><text font-family="Times New Roman,Times New Roman_MSFontService,sans-serif" font-weight="400" font-size="27" transform="translate(888.483 518)">Build</text><text font-family="Times New Roman,Times New Roman_MSFontService,sans-serif" font-weight="400" font-size="27" transform="translate(960.503 518)">Tree</text><path d="M1085.5 442C1085.5 436.753 1089.53 432.5 1094.5 432.5 1099.47 432.5 1103.5 436.753 1103.5 442 1103.5 447.247 1099.47 451.5 1094.5 451.5 1089.53 451.5 1085.5 447.247 1085.5 442Z" stroke="#000000" stroke-width="0.333333" stroke-miterlimit="8" fill="none" fill-rule="evenodd"/><path d="M1051.5 514C1051.5 508.753 1055.75 504.5 1061 504.5 1066.25 504.5 1070.5 508.753 1070.5 514 1070.5 519.247 1066.25 523.5 1061 523.5 1055.75 523.5 1051.5 519.247 1051.5 514Z" stroke="#000000" stroke-width="0.333333" stroke-miterlimit="8" fill="#FFFF00" fill-rule="evenodd"/><path d="M1030.5 600.5C1030.5 595.529 1034.53 591.5 1039.5 591.5 1044.47 591.5 1048.5 595.529 1048.5 600.5 1048.5 605.471 1044.47 609.5 1039.5 609.5 1034.53 609.5 1030.5 605.471 1030.5 600.5Z" stroke="#000000" stroke-width="0.333333" stroke-miterlimit="8" fill="#5B9BD5" fill-rule="evenodd"/><path d="M1051.5 600.5C1051.5 595.529 1055.75 591.5 1061 591.5 1066.25 591.5 1070.5 595.529 1070.5 600.5 1070.5 605.471 1066.25 609.5 1061 609.5 1055.75 609.5 1051.5 605.471 1051.5 600.5Z" stroke="#000000" stroke-width="0.333333" stroke-miterlimit="8" fill="#ED7D31" fill-rule="evenodd"/><path d="M1073.5 600.5C1073.5 595.529 1077.75 591.5 1083 591.5 1088.25 591.5 1092.5 595.529 1092.5 600.5 1092.5 605.471 1088.25 609.5 1083 609.5 1077.75 609.5 1073.5 605.471 1073.5 600.5Z" stroke="#000000" stroke-width="0.333333" stroke-miterlimit="8" fill="#70AD47" fill-rule="evenodd"/><path d="M0 0 14.9241 70.6589" stroke="#000000" stroke-width="0.333333" stroke-miterlimit="8" fill="none" fill-rule="evenodd" transform="matrix(1 0 0 -1 1039.5 591.159)"/><path d="M1061.79 591.391 1061.5 523.5" stroke="#000000" stroke-width="0.333333" stroke-miterlimit="8" fill="none" fill-rule="evenodd"/><path d="M1082.33 591.159 1067.5 520.5" stroke="#000000" stroke-width="0.333333" stroke-miterlimit="8" fill="none" fill-rule="evenodd"/><path d="M1149.5 600.5C1149.5 595.529 1153.53 591.5 1158.5 591.5 1163.47 591.5 1167.5 595.529 1167.5 600.5 1167.5 605.471 1163.47 609.5 1158.5 609.5 1153.53 609.5 1149.5 605.471 1149.5 600.5Z" stroke="#000000" stroke-width="0.333333" stroke-miterlimit="8" fill="#FFC000" fill-rule="evenodd"/><path d="M1128.5 514C1128.5 508.753 1132.75 504.5 1138 504.5 1143.25 504.5 1147.5 508.753 1147.5 514 1147.5 519.247 1143.25 523.5 1138 523.5 1132.75 523.5 1128.5 519.247 1128.5 514Z" stroke="#000000" stroke-width="0.333333" stroke-miterlimit="8" fill="#00B0F0" fill-rule="evenodd"/><path d="M1114.5 600.5C1114.5 595.529 1118.53 591.5 1123.5 591.5 1128.47 591.5 1132.5 595.529 1132.5 600.5 1132.5 605.471 1128.47 609.5 1123.5 609.5 1118.53 609.5 1114.5 605.471 1114.5 600.5Z" stroke="#000000" stroke-width="0.333333" stroke-miterlimit="8" fill="#BDD0E9" fill-rule="evenodd"/><path d="M0 0 7.48178 70.6589" stroke="#000000" stroke-width="0.333333" stroke-miterlimit="8" fill="none" fill-rule="evenodd" transform="matrix(1 0 0 -1 1123.5 591.159)"/><path d="M1158.65 591.159 1144.5 520.5" stroke="#000000" stroke-width="0.333333" stroke-miterlimit="8" fill="none" fill-rule="evenodd"/><path d="M0 0 26.7325 55.1043" stroke="#000000" stroke-width="0.333333" stroke-miterlimit="8" fill="none" fill-rule="evenodd" transform="matrix(1 0 0 -1 1061.5 504.604)"/><path d="M1137.96 504.604 1101.5 449.5" stroke="#000000" stroke-width="0.333333" stroke-miterlimit="8" fill="none" fill-rule="evenodd"/></g></svg>
