<svg width="1280" height="265" xmlns="http://www.w3.org/2000/svg" xmlns:xlink="http://www.w3.org/1999/xlink" overflow="hidden"><defs><clipPath id="clip0"><rect x="0" y="0" width="1280" height="265"/></clipPath></defs><g clip-path="url(#clip0)"><rect x="0" y="0" width="1280" height="265.501" fill="#FFFFFF"/><rect x="16.5001" y="13.5256" width="1225" height="235.444" stroke="#172C51" stroke-width="1.33333" stroke-miterlimit="8" stroke-dasharray="5.33333 4" fill="none"/><path d="M434.5 49.5936C434.5 44.6137 438.753 40.5766 444 40.5766 449.247 40.5766 453.5 44.6137 453.5 49.5936 453.5 54.5736 449.247 58.6106 444 58.6106 438.753 58.6106 434.5 54.5736 434.5 49.5936Z" stroke="#000000" stroke-width="0.333333" stroke-miterlimit="8" fill="none" fill-rule="evenodd"/><path d="M279.5 121.229C279.5 115.972 283.753 111.711 289 111.711 294.247 111.711 298.5 115.972 298.5 121.229 298.5 126.485 294.247 130.747 289 130.747 283.753 130.747 279.5 126.485 279.5 121.229Z" stroke="#000000" stroke-width="0.333333" stroke-miterlimit="8" fill="#5B9BD5" fill-rule="evenodd"/><path d="M257.5 207.892C257.5 202.912 261.753 198.875 267 198.875 272.247 198.875 276.5 202.912 276.5 207.892 276.5 212.872 272.247 216.909 267 216.909 261.753 216.909 257.5 212.872 257.5 207.892Z" stroke="#000000" stroke-width="0.333333" stroke-miterlimit="8" fill="#5B9BD5" fill-rule="evenodd"/><path d="M279.5 207.892C279.5 202.912 283.753 198.875 289 198.875 294.247 198.875 298.5 202.912 298.5 207.892 298.5 212.872 294.247 216.909 289 216.909 283.753 216.909 279.5 212.872 279.5 207.892Z" stroke="#000000" stroke-width="0.333333" stroke-miterlimit="8" fill="#5B9BD5" fill-rule="evenodd"/><path d="M300.5 207.892C300.5 202.912 304.753 198.875 310 198.875 315.247 198.875 319.5 202.912 319.5 207.892 319.5 212.872 315.247 216.909 310 216.909 304.753 216.909 300.5 212.872 300.5 207.892Z" stroke="#000000" stroke-width="0.333333" stroke-miterlimit="8" fill="#5B9BD5" fill-rule="evenodd"/><path d="M0 0 14.9241 70.6589" stroke="#000000" stroke-width="0.333333" stroke-miterlimit="8" fill="none" fill-rule="evenodd" transform="matrix(1 0 0 -1.00189 267.5 198.534)"/><path d="M288.792 198.767 288.5 130.747" stroke="#000000" stroke-width="0.333333" stroke-miterlimit="8" fill="none" fill-rule="evenodd"/><path d="M310.328 198.534 295.5 127.741" stroke="#000000" stroke-width="0.333333" stroke-miterlimit="8" fill="none" fill-rule="evenodd"/><path d="M389.5 207.391C389.5 202.135 393.753 197.873 399 197.873 404.247 197.873 408.5 202.135 408.5 207.391 408.5 212.648 404.247 216.909 399 216.909 393.753 216.909 389.5 212.648 389.5 207.391Z" stroke="#000000" stroke-width="0.333333" stroke-miterlimit="8" fill="#ED7D31" fill-rule="evenodd"/><path d="M356.5 121.229C356.5 115.972 360.753 111.711 366 111.711 371.247 111.711 375.5 115.972 375.5 121.229 375.5 126.485 371.247 130.747 366 130.747 360.753 130.747 356.5 126.485 356.5 121.229Z" stroke="#000000" stroke-width="0.333333" stroke-miterlimit="8" fill="#ED7D31" fill-rule="evenodd"/><path d="M326.5 207.391C326.5 202.135 330.753 197.873 336 197.873 341.247 197.873 345.5 202.135 345.5 207.391 345.5 212.648 341.247 216.909 336 216.909 330.753 216.909 326.5 212.648 326.5 207.391Z" stroke="#000000" stroke-width="0.333333" stroke-miterlimit="8" fill="#ED7D31" fill-rule="evenodd"/><path d="M347.5 207.391C347.5 202.135 351.753 197.873 357 197.873 362.247 197.873 366.5 202.135 366.5 207.391 366.5 212.648 362.247 216.909 357 216.909 351.753 216.909 347.5 212.648 347.5 207.391Z" stroke="#000000" stroke-width="0.333333" stroke-miterlimit="8" fill="#ED7D31" fill-rule="evenodd"/><path d="M368.5 207.391C368.5 202.135 372.753 197.873 378 197.873 383.247 197.873 387.5 202.135 387.5 207.391 387.5 212.648 383.247 216.909 378 216.909 372.753 216.909 368.5 212.648 368.5 207.391Z" stroke="#000000" stroke-width="0.333333" stroke-miterlimit="8" fill="#ED7D31" fill-rule="evenodd"/><path d="M0 0 22.9733 69.8556" stroke="#000000" stroke-width="0.333333" stroke-miterlimit="8" fill="none" fill-rule="evenodd" transform="matrix(1 0 0 -1.00189 336.5 197.729)"/><path d="M0 0 8.68714 67.0882" stroke="#000000" stroke-width="0.333333" stroke-miterlimit="8" fill="none" fill-rule="evenodd" transform="matrix(1 0 0 -1.00189 357.5 197.962)"/><path d="M378.553 197.962 366.5 130.747" stroke="#000000" stroke-width="0.333333" stroke-miterlimit="8" fill="none" fill-rule="evenodd"/><path d="M399.09 197.729 372.5 127.741" stroke="#000000" stroke-width="0.333333" stroke-miterlimit="8" fill="none" fill-rule="evenodd"/><path d="M435.5 121.229C435.5 115.972 439.753 111.711 445 111.711 450.247 111.711 454.5 115.972 454.5 121.229 454.5 126.485 450.247 130.747 445 130.747 439.753 130.747 435.5 126.485 435.5 121.229Z" stroke="#000000" stroke-width="0.333333" stroke-miterlimit="8" fill="#70AD47" fill-rule="evenodd"/><path d="M415.5 208.393C415.5 203.137 419.753 198.875 425 198.875 430.247 198.875 434.5 203.137 434.5 208.393 434.5 213.65 430.247 217.911 425 217.911 419.753 217.911 415.5 213.65 415.5 208.393Z" stroke="#000000" stroke-width="0.333333" stroke-miterlimit="8" fill="#70AD47" fill-rule="evenodd"/><path d="M437.5 208.393C437.5 203.137 441.53 198.875 446.5 198.875 451.471 198.875 455.5 203.137 455.5 208.393 455.5 213.65 451.471 217.911 446.5 217.911 441.53 217.911 437.5 213.65 437.5 208.393Z" stroke="#000000" stroke-width="0.333333" stroke-miterlimit="8" fill="#70AD47" fill-rule="evenodd"/><path d="M457.5 208.393C457.5 203.137 461.753 198.875 467 198.875 472.247 198.875 476.5 203.137 476.5 208.393 476.5 213.65 472.247 217.911 467 217.911 461.753 217.911 457.5 213.65 457.5 208.393Z" stroke="#000000" stroke-width="0.333333" stroke-miterlimit="8" fill="#70AD47" fill-rule="evenodd"/><path d="M0 0 13.2818 70.979" stroke="#000000" stroke-width="0.333333" stroke-miterlimit="8" fill="none" fill-rule="evenodd" transform="matrix(1 0 0 -1.00189 425.5 198.854)"/><path d="M446.755 199.087 445.5 130.747" stroke="#000000" stroke-width="0.333333" stroke-miterlimit="8" fill="none" fill-rule="evenodd"/><path d="M467.022 198.854 451.5 127.741" stroke="#000000" stroke-width="0.333333" stroke-miterlimit="8" fill="none" fill-rule="evenodd"/><path d="M546.5 208.393C546.5 203.137 550.753 198.875 556 198.875 561.247 198.875 565.5 203.137 565.5 208.393 565.5 213.65 561.247 217.911 556 217.911 550.753 217.911 546.5 213.65 546.5 208.393Z" stroke="#000000" stroke-width="0.333333" stroke-miterlimit="8" fill="#BDD0E9" fill-rule="evenodd"/><path d="M513.5 121.229C513.5 115.972 517.753 111.711 523 111.711 528.247 111.711 532.5 115.972 532.5 121.229 532.5 126.485 528.247 130.747 523 130.747 517.753 130.747 513.5 126.485 513.5 121.229Z" stroke="#000000" stroke-width="0.333333" stroke-miterlimit="8" fill="#BDD0E9" fill-rule="evenodd"/><path d="M483.5 208.393C483.5 203.137 487.753 198.875 493 198.875 498.247 198.875 502.5 203.137 502.5 208.393 502.5 213.65 498.247 217.911 493 217.911 487.753 217.911 483.5 213.65 483.5 208.393Z" stroke="#000000" stroke-width="0.333333" stroke-miterlimit="8" fill="#BDD0E9" fill-rule="evenodd"/><path d="M504.5 208.393C504.5 203.137 508.753 198.875 514 198.875 519.247 198.875 523.5 203.137 523.5 208.393 523.5 213.65 519.247 217.911 514 217.911 508.753 217.911 504.5 213.65 504.5 208.393Z" stroke="#000000" stroke-width="0.333333" stroke-miterlimit="8" fill="#BDD0E9" fill-rule="evenodd"/><path d="M526.5 208.393C526.5 203.137 530.529 198.875 535.5 198.875 540.471 198.875 544.5 203.137 544.5 208.393 544.5 213.65 540.471 217.911 535.5 217.911 530.529 217.911 526.5 213.65 526.5 208.393Z" stroke="#000000" stroke-width="0.333333" stroke-miterlimit="8" fill="#BDD0E9" fill-rule="evenodd"/><path d="M0 0 22.8294 70.479" stroke="#000000" stroke-width="0.333333" stroke-miterlimit="8" fill="none" fill-rule="evenodd" transform="matrix(1 0 0 -1.00189 493.5 198.353)"/><path d="M0 0 8.43391 67.7115" stroke="#000000" stroke-width="0.333333" stroke-miterlimit="8" fill="none" fill-rule="evenodd" transform="matrix(1 0 0 -1.00189 514.5 198.586)"/><path d="M535.284 198.586 522.5 130.747" stroke="#000000" stroke-width="0.333333" stroke-miterlimit="8" fill="none" fill-rule="evenodd"/><path d="M556.216 198.353 529.5 127.741" stroke="#000000" stroke-width="0.333333" stroke-miterlimit="8" fill="none" fill-rule="evenodd"/><path d="M634.5 208.393C634.5 203.137 638.753 198.875 644 198.875 649.247 198.875 653.5 203.137 653.5 208.393 653.5 213.65 649.247 217.911 644 217.911 638.753 217.911 634.5 213.65 634.5 208.393Z" stroke="#000000" stroke-width="0.333333" stroke-miterlimit="8" fill="#FFC000" fill-rule="evenodd"/><path d="M611.5 121.229C611.5 115.972 615.753 111.711 621 111.711 626.247 111.711 630.5 115.972 630.5 121.229 630.5 126.485 626.247 130.747 621 130.747 615.753 130.747 611.5 126.485 611.5 121.229Z" stroke="#000000" stroke-width="0.333333" stroke-miterlimit="8" fill="#FFC000" fill-rule="evenodd"/><path d="M571.5 208.393C571.5 203.137 575.753 198.875 581 198.875 586.247 198.875 590.5 203.137 590.5 208.393 590.5 213.65 586.247 217.911 581 217.911 575.753 217.911 571.5 213.65 571.5 208.393Z" stroke="#000000" stroke-width="0.333333" stroke-miterlimit="8" fill="#FFC000" fill-rule="evenodd"/><path d="M592.5 208.393C592.5 203.137 596.753 198.875 602 198.875 607.247 198.875 611.5 203.137 611.5 208.393 611.5 213.65 607.247 217.911 602 217.911 596.753 217.911 592.5 213.65 592.5 208.393Z" stroke="#000000" stroke-width="0.333333" stroke-miterlimit="8" fill="#FFC000" fill-rule="evenodd"/><path d="M613.5 208.393C613.5 203.137 617.753 198.875 623 198.875 628.247 198.875 632.5 203.137 632.5 208.393 632.5 213.65 628.247 217.911 623 217.911 617.753 217.911 613.5 213.65 613.5 208.393Z" stroke="#000000" stroke-width="0.333333" stroke-miterlimit="8" fill="#FFC000" fill-rule="evenodd"/><path d="M0 0 30.8291 77.327" stroke="#000000" stroke-width="0.333333" stroke-miterlimit="8" fill="none" fill-rule="evenodd" transform="matrix(1 0 0 -1.00189 580.5 199.203)"/><path d="M0 0 12.4477 70.6457" stroke="#000000" stroke-width="0.333333" stroke-miterlimit="8" fill="none" fill-rule="evenodd" transform="matrix(1 0 0 -1.00189 601.5 198.52)"/><path d="M622.268 198.753 620.5 130.747" stroke="#000000" stroke-width="0.333333" stroke-miterlimit="8" fill="none" fill-rule="evenodd"/><path d="M643.732 198.52 627.5 127.741" stroke="#000000" stroke-width="0.333333" stroke-miterlimit="8" fill="none" fill-rule="evenodd"/><path d="M654.5 208.393C654.5 203.137 658.753 198.875 664 198.875 669.247 198.875 673.5 203.137 673.5 208.393 673.5 213.65 669.247 217.911 664 217.911 658.753 217.911 654.5 213.65 654.5 208.393Z" stroke="#000000" stroke-width="0.333333" stroke-miterlimit="8" fill="#FFC000" fill-rule="evenodd"/><path d="M664.458 199.203 630.5 121.73" stroke="#000000" stroke-width="0.333333" stroke-miterlimit="8" fill="none" fill-rule="evenodd"/><path d="M0 0 146.187 61.7856" stroke="#000000" stroke-width="0.333333" stroke-miterlimit="8" fill="none" fill-rule="evenodd" transform="matrix(1 0 0 -1.00189 288.5 111.496)"/><path d="M0 0 71.5078 55.1043" stroke="#000000" stroke-width="0.333333" stroke-miterlimit="8" fill="none" fill-rule="evenodd" transform="matrix(1 0 0 -1.00189 366.5 111.815)"/><path d="M445.486 111.046 444.5 58.6106" stroke="#000000" stroke-width="0.333333" stroke-miterlimit="8" fill="none" fill-rule="evenodd"/><path d="M522.325 112.316 450.5 56.6069" stroke="#000000" stroke-width="0.333333" stroke-miterlimit="8" fill="none" fill-rule="evenodd"/><path d="M453.5 49.5936 620.711 111.83" stroke="#000000" stroke-width="0.333333" stroke-miterlimit="8" fill="none" fill-rule="evenodd"/><path d="M123.5 49.0927C123.5 43.8361 127.753 39.5747 133 39.5747 138.247 39.5747 142.5 43.8361 142.5 49.0927 142.5 54.3493 138.247 58.6106 133 58.6106 127.753 58.6106 123.5 54.3493 123.5 49.0927Z" stroke="#000000" stroke-width="0.333333" stroke-miterlimit="8" fill="none" fill-rule="evenodd"/><path d="M90.5001 121.229C90.5001 115.972 94.7533 111.711 100 111.711 105.247 111.711 109.5 115.972 109.5 121.229 109.5 126.485 105.247 130.747 100 130.747 94.7533 130.747 90.5001 126.485 90.5001 121.229Z" stroke="#000000" stroke-width="0.333333" stroke-miterlimit="8" fill="#FFFF00" fill-rule="evenodd"/><path d="M68.5001 207.391C68.5001 202.135 72.7533 197.873 78.0001 197.873 83.2468 197.873 87.5001 202.135 87.5001 207.391 87.5001 212.648 83.2468 216.909 78.0001 216.909 72.7533 216.909 68.5001 212.648 68.5001 207.391Z" stroke="#000000" stroke-width="0.333333" stroke-miterlimit="8" fill="#5B9BD5" fill-rule="evenodd"/><path d="M90.5001 207.391C90.5001 202.135 94.7533 197.873 100 197.873 105.247 197.873 109.5 202.135 109.5 207.391 109.5 212.648 105.247 216.909 100 216.909 94.7533 216.909 90.5001 212.648 90.5001 207.391Z" stroke="#000000" stroke-width="0.333333" stroke-miterlimit="8" fill="#ED7D31" fill-rule="evenodd"/><path d="M111.5 207.391C111.5 202.135 115.753 197.873 121 197.873 126.247 197.873 130.5 202.135 130.5 207.391 130.5 212.648 126.247 216.909 121 216.909 115.753 216.909 111.5 212.648 111.5 207.391Z" stroke="#000000" stroke-width="0.333333" stroke-miterlimit="8" fill="#70AD47" fill-rule="evenodd"/><path d="M0 0 14.9241 70.6589" stroke="#000000" stroke-width="0.333333" stroke-miterlimit="8" fill="none" fill-rule="evenodd" transform="matrix(1 0 0 -1.00189 78.5001 198.534)"/><path d="M99.7919 198.767 99.5001 130.747" stroke="#000000" stroke-width="0.333333" stroke-miterlimit="8" fill="none" fill-rule="evenodd"/><path d="M121.328 198.534 106.5 127.741" stroke="#000000" stroke-width="0.333333" stroke-miterlimit="8" fill="none" fill-rule="evenodd"/><path d="M187.5 207.391C187.5 202.135 191.753 197.873 197 197.873 202.247 197.873 206.5 202.135 206.5 207.391 206.5 212.648 202.247 216.909 197 216.909 191.753 216.909 187.5 212.648 187.5 207.391Z" stroke="#000000" stroke-width="0.333333" stroke-miterlimit="8" fill="#FFC000" fill-rule="evenodd"/><path d="M166.5 121.229C166.5 115.972 170.753 111.711 176 111.711 181.247 111.711 185.5 115.972 185.5 121.229 185.5 126.485 181.247 130.747 176 130.747 170.753 130.747 166.5 126.485 166.5 121.229Z" stroke="#000000" stroke-width="0.333333" stroke-miterlimit="8" fill="#00B0F0" fill-rule="evenodd"/><path d="M152.5 207.391C152.5 202.135 156.753 197.873 162 197.873 167.247 197.873 171.5 202.135 171.5 207.391 171.5 212.648 167.247 216.909 162 216.909 156.753 216.909 152.5 212.648 152.5 207.391Z" stroke="#000000" stroke-width="0.333333" stroke-miterlimit="8" fill="#BDD0E9" fill-rule="evenodd"/><path d="M0 0 7.48178 70.6589" stroke="#000000" stroke-width="0.333333" stroke-miterlimit="8" fill="none" fill-rule="evenodd" transform="matrix(1 0 0 -1.00189 162.5 198.534)"/><path d="M196.645 198.534 182.5 127.741" stroke="#000000" stroke-width="0.333333" stroke-miterlimit="8" fill="none" fill-rule="evenodd"/><path d="M0 0 26.7325 55.1043" stroke="#000000" stroke-width="0.333333" stroke-miterlimit="8" fill="none" fill-rule="evenodd" transform="matrix(1 0 0 -1.00189 99.5001 111.815)"/><path d="M175.962 111.815 139.5 56.6069" stroke="#000000" stroke-width="0.333333" stroke-miterlimit="8" fill="none" fill-rule="evenodd"/><path d="M0.0199815-0.165465 2.66741 0.15424 2.62745 0.485169-0.0199815 0.165465ZM3.65599 0.452734 5.75263 1.19657 6.16156 1.43436 5.994 1.72252 5.59849 1.49254 5.62654 1.50553 3.54454 0.766882ZM7.02604 1.93703 8.56235 2.83036 9.27461 3.4045 9.06542 3.66402 8.36302 3.09783 8.38384 3.11215 6.85848 2.22519ZM10.0532 4.03208 11.2987 5.03604 12.0547 5.81786 11.815 6.04958 11.0662 5.27518 11.0814 5.28908 9.84397 4.29159ZM12.7498 6.53673 13.9409 7.7685 14.5406 8.5313 14.2785 8.73731 13.6841 7.98122 13.6954 7.99408 12.5102 6.76845ZM15.1586 9.31747 16.4683 10.9835 16.776 11.4537 16.4971 11.6362 16.1933 11.1721 16.2017 11.1838 14.8965 9.52347ZM17.3236 12.2904 18.7839 14.5217 18.505 14.7043 17.0447 12.473ZM19.2819 15.403 20.5699 17.738 20.278 17.899 18.99 15.564ZM21.0529 18.6136 21.0939 18.6879 22.118 21.0759 21.8117 21.2072 20.7908 18.8269 20.7981 18.8417 20.761 18.7746ZM22.5122 21.9949 23.5632 24.4457 23.2569 24.5771 22.2058 22.1263ZM23.9573 25.3648 24.9983 27.7919 25.0111 27.8353 24.6915 27.93 24.6814 27.896 24.6881 27.9143 23.651 25.4961ZM25.2952 28.7941 26.0526 31.351 25.733 31.4456 24.9755 28.8888ZM26.3366 32.3098 27.0941 34.8666 26.7745 34.9613 26.017 32.4044ZM27.3781 35.8254 28.0084 37.953 28.0902 38.4121 27.7621 38.4706 27.6819 38.0207 27.6862 38.0387 27.0585 35.9201ZM28.2658 39.3965 28.7338 42.0218 28.4057 42.0803 27.9376 39.455ZM28.9093 43.0063 29.3774 45.6316 29.0492 45.6901 28.5812 43.0648ZM29.5529 46.616 29.9455 48.818 29.9729 49.2664 29.6401 49.2867 29.6133 48.8479 29.6156 48.867 29.2247 46.6745ZM30.0338 50.2645 30.1965 52.9262 29.8638 52.9466 29.7011 50.2849ZM30.2575 53.9244 30.4201 56.5861 30.0874 56.6064 29.9248 53.9447ZM30.4811 57.5842 30.6303 60.0257 30.63 60.0214 30.6491 60.2412 30.317 60.2701 30.2977 60.0482 30.1484 57.6045ZM30.7358 61.2374 30.9671 63.8941 30.635 63.923 30.4038 61.2664ZM31.0538 64.8903 31.1193 65.6424 31.1147 65.6156 31.5884 67.4677 31.2655 67.5503 30.7884 65.685 30.7217 64.9192ZM31.8362 68.4365 32.4969 71.02 32.174 71.1026 31.5132 68.5191ZM32.851 71.9274 33.8819 74.3868 33.5745 74.5156 32.5436 72.0563ZM34.2685 75.309 34.8342 76.6586 34.8246 76.6393 35.4291 77.6797 35.1409 77.8472 34.531 76.7975 33.9611 75.4379ZM35.9316 78.5443 37.2713 80.85 36.9831 81.0175 35.6434 78.7118ZM37.7738 81.7146 37.9376 81.9965 37.9271 81.9806 39.326 83.8572 39.0588 84.0564 37.6541 82.1722 37.4856 81.8821ZM39.9237 84.6589 41.5175 86.7969 41.2503 86.9961 39.6565 84.8582ZM42.147 87.5504 43.9493 89.5158 43.7036 89.7411 41.9013 87.7757ZM44.6252 90.2528 46.3286 92.1104 46.3178 92.0996 46.4261 92.198 46.202 92.4448 46.0881 92.3413 44.3795 90.4781ZM47.1665 92.8701 49.1409 94.6626 48.9168 94.9094 46.9424 93.1169ZM49.8813 95.3348 51.4922 96.7973 51.4815 96.7883 51.8713 97.0866 51.6687 97.3513 51.2733 97.0488 49.6572 95.5816ZM52.6655 97.6943 54.7832 99.3149 54.5806 99.5796 52.4629 97.9591ZM55.5774 99.9226 57.2181 101.178 57.2074 101.171 57.7116 101.497 57.5304 101.777 57.0207 101.447 55.3748 100.187ZM58.551 102.041 60.7894 103.49 60.6082 103.77 58.3698 102.32ZM61.6288 104.033 63.4437 105.209 63.433 105.202 63.8758 105.444 63.7161 105.737 63.2678 105.492 61.4476 104.313ZM64.7536 105.923 67.0943 107.201 66.9346 107.493 64.5939 106.216ZM67.9721 107.68 70.1066 108.845 70.0957 108.839 70.3096 108.936 70.1717 109.24 69.9523 109.14 67.8124 107.972ZM71.22 109.35 73.6478 110.453 73.5099 110.757 71.0822 109.653ZM74.5583 110.867 76.9861 111.97 76.8482 112.273 74.4204 111.17ZM77.9081 112.323 80.4096 113.247 80.2941 113.56 77.7926 112.636ZM81.3477 113.594 83.8491 114.518 83.7336 114.831 81.2322 113.907ZM84.7827 114.839 87.3453 115.577 87.253 115.897 84.6905 115.159ZM88.3062 115.853 90.8688 116.591 90.7766 116.911 88.214 116.174ZM91.8298 116.868 92.0928 116.943 92.0806 116.94 94.4235 117.427 94.3557 117.753 92.0066 117.266 91.7375 117.188ZM95.4026 117.63 98.0136 118.173 97.9458 118.499 95.3348 117.957ZM98.9927 118.376 99.8786 118.56 99.8657 118.558 101.614 118.779 101.572 119.11 99.8173 118.888 98.9249 118.702ZM102.606 118.905 105.251 119.24 105.209 119.571 102.564 119.236ZM106.243 119.366 107.789 119.562 107.775 119.561 108.883 119.609 108.868 119.942 107.754 119.894 106.201 119.697ZM109.882 119.652 112.546 119.767 112.532 120.1 109.867 119.985ZM113.545 119.81 115.76 119.905 115.748 119.905 116.197 119.89 116.208 120.223 115.752 120.239 113.531 120.143ZM117.196 119.856 119.861 119.766 119.872 120.099 117.207 120.189ZM120.861 119.732 123.526 119.642 123.537 119.975 120.872 120.065ZM124.525 119.608 127.19 119.517 127.201 119.851 124.536 119.941ZM128.19 119.484 130.855 119.393 130.866 119.726 128.201 119.817ZM131.843 119.347 134.496 119.085 134.529 119.417 131.875 119.679ZM135.491 118.987 138.145 118.724 138.178 119.056 135.524 119.318ZM139.14 118.626 141.794 118.363 141.827 118.695 139.173 118.958ZM142.789 118.265 145.443 118.003 145.476 118.334 142.822 118.597ZM146.438 117.904 147.054 117.843 147.046 117.844 149.072 117.545 149.121 117.875 147.091 118.175 146.471 118.236ZM150.061 117.399 152.699 117.01 152.748 117.339 150.11 117.729ZM153.688 116.864 154.407 116.757 154.401 116.758 156.311 116.412 156.37 116.74 154.458 117.087 153.737 117.193ZM157.295 116.233 159.918 115.756 159.978 116.084 157.354 116.561ZM160.902 115.578 161.45 115.478 161.444 115.479 163.506 115.029 163.577 115.355 161.512 115.806 160.962 115.906ZM164.483 114.816 167.088 114.248 167.159 114.574 164.554 115.142ZM168.065 114.035 168.118 114.023 168.111 114.025 170.641 113.37 170.724 113.693 168.192 114.348 168.136 114.36ZM171.609 113.119 174.191 112.451 174.274 112.774 171.693 113.442ZM175.142 112.167 177.692 111.387 177.789 111.706 175.239 112.486ZM178.648 111.095 180.077 110.658 180.069 110.66 181.171 110.26 181.285 110.574 180.179 110.975 178.746 111.414ZM182.111 109.919 184.618 109.01 184.731 109.323 182.225 110.233ZM185.54 108.653 187.985 107.587 188.118 107.893 185.673 108.958ZM188.901 107.188 189.784 106.803 189.771 106.809 191.273 106.003 191.431 106.297 189.923 107.106 189.034 107.493ZM192.155 105.531 193.634 104.738 193.604 104.758 194.355 104.115 194.572 104.368 193.807 105.023 192.312 105.825ZM195.114 103.465 197.14 101.731 197.357 101.984 195.331 103.718ZM193.36 100.653 201.042 96.072 200.098 104.966Z" transform="matrix(-1 1.22696e-16 1.22465e-16 1.00189 279.542 120.728)"/><path d="M0 0 14.7344 41.452" stroke="#000000" stroke-width="0.333333" stroke-miterlimit="8" fill="none" fill-rule="evenodd" transform="matrix(1 0 0 -1.00189 816.5 199.328)"/><path d="M837.982 199.561 837.5 160.803" stroke="#000000" stroke-width="0.333333" stroke-miterlimit="8" fill="none" fill-rule="evenodd"/><path d="M859.518 199.328 844.5 157.798" stroke="#000000" stroke-width="0.333333" stroke-miterlimit="8" fill="none" fill-rule="evenodd"/><path d="M0 0 22.7836 40.6487" stroke="#000000" stroke-width="0.333333" stroke-miterlimit="8" fill="none" fill-rule="evenodd" transform="matrix(1 0 0 -1.00189 885.5 198.523)"/><path d="M0 0 8.49743 37.8813" stroke="#000000" stroke-width="0.333333" stroke-miterlimit="8" fill="none" fill-rule="evenodd" transform="matrix(1 0 0 -1.00189 906.5 198.756)"/><path d="M926.743 198.756 914.5 160.803" stroke="#000000" stroke-width="0.333333" stroke-miterlimit="8" fill="none" fill-rule="evenodd"/><path d="M948.28 198.523 921.5 157.798" stroke="#000000" stroke-width="0.333333" stroke-miterlimit="8" fill="none" fill-rule="evenodd"/><path d="M0 0 13.0921 41.7721" stroke="#000000" stroke-width="0.333333" stroke-miterlimit="8" fill="none" fill-rule="evenodd" transform="matrix(1 0 0 -1.00189 974.5 199.649)"/><path d="M995.944 199.882 994.5 160.803" stroke="#000000" stroke-width="0.333333" stroke-miterlimit="8" fill="none" fill-rule="evenodd"/><path d="M1016.21 199.649 1000.5 157.798" stroke="#000000" stroke-width="0.333333" stroke-miterlimit="8" fill="none" fill-rule="evenodd"/><path d="M0 0 22.6397 41.272" stroke="#000000" stroke-width="0.333333" stroke-miterlimit="8" fill="none" fill-rule="evenodd" transform="matrix(1 0 0 -1.00189 1042.5 200.15)"/><path d="M0 0 8.2442 38.5046" stroke="#000000" stroke-width="0.333333" stroke-miterlimit="8" fill="none" fill-rule="evenodd" transform="matrix(1 0 0 -1.00189 1063.5 199.381)"/><path d="M1084.47 199.381 1071.5 160.803" stroke="#000000" stroke-width="0.333333" stroke-miterlimit="8" fill="none" fill-rule="evenodd"/><path d="M1105.41 200.15 1078.5 158.8" stroke="#000000" stroke-width="0.333333" stroke-miterlimit="8" fill="none" fill-rule="evenodd"/><path d="M828.5 151.285C828.5 146.029 832.529 141.768 837.5 141.768 842.471 141.768 846.5 146.029 846.5 151.285 846.5 156.542 842.471 160.803 837.5 160.803 832.529 160.803 828.5 156.542 828.5 151.285Z" stroke="#000000" stroke-width="0.333333" stroke-miterlimit="8" fill="#5B9BD5" fill-rule="evenodd"/><path d="M905.5 151.285C905.5 146.029 909.753 141.768 915 141.768 920.247 141.768 924.5 146.029 924.5 151.285 924.5 156.542 920.247 160.803 915 160.803 909.753 160.803 905.5 156.542 905.5 151.285Z" stroke="#000000" stroke-width="0.333333" stroke-miterlimit="8" fill="#ED7D31" fill-rule="evenodd"/><path d="M984.5 151.285C984.5 146.029 988.753 141.768 994 141.768 999.247 141.768 1003.5 146.029 1003.5 151.285 1003.5 156.542 999.247 160.803 994 160.803 988.753 160.803 984.5 156.542 984.5 151.285Z" stroke="#000000" stroke-width="0.333333" stroke-miterlimit="8" fill="#70AD47" fill-rule="evenodd"/><path d="M1062.5 151.285C1062.5 146.029 1066.75 141.768 1072 141.768 1077.25 141.768 1081.5 146.029 1081.5 151.285 1081.5 156.542 1077.25 160.803 1072 160.803 1066.75 160.803 1062.5 156.542 1062.5 151.285Z" stroke="#000000" stroke-width="0.333333" stroke-miterlimit="8" fill="#BDD0E9" fill-rule="evenodd"/><path d="M1160.5 151.285C1160.5 146.029 1164.75 141.768 1170 141.768 1175.25 141.768 1179.5 146.029 1179.5 151.285 1179.5 156.542 1175.25 160.803 1170 160.803 1164.75 160.803 1160.5 156.542 1160.5 151.285Z" stroke="#000000" stroke-width="0.333333" stroke-miterlimit="8" fill="#FFC000" fill-rule="evenodd"/><path d="M0 0 30.6394 48.1201" stroke="#000000" stroke-width="0.333333" stroke-miterlimit="8" fill="none" fill-rule="evenodd" transform="matrix(1 0 0 -1.00189 1129.5 199.998)"/><path d="M0 0 12.258 41.4387" stroke="#000000" stroke-width="0.333333" stroke-miterlimit="8" fill="none" fill-rule="evenodd" transform="matrix(1 0 0 -1.00189 1150.5 199.315)"/><path d="M1171.46 199.548 1169.5 160.803" stroke="#000000" stroke-width="0.333333" stroke-miterlimit="8" fill="none" fill-rule="evenodd"/><path d="M1192.92 199.315 1176.5 157.798" stroke="#000000" stroke-width="0.333333" stroke-miterlimit="8" fill="none" fill-rule="evenodd"/><path d="M806.5 208.393C806.5 203.137 810.753 198.875 816 198.875 821.247 198.875 825.5 203.137 825.5 208.393 825.5 213.65 821.247 217.911 816 217.911 810.753 217.911 806.5 213.65 806.5 208.393Z" stroke="#000000" stroke-width="0.333333" stroke-miterlimit="8" fill="#5B9BD5" fill-rule="evenodd"/><path d="M828.5 208.393C828.5 203.137 832.753 198.875 838 198.875 843.247 198.875 847.5 203.137 847.5 208.393 847.5 213.65 843.247 217.911 838 217.911 832.753 217.911 828.5 213.65 828.5 208.393Z" stroke="#000000" stroke-width="0.333333" stroke-miterlimit="8" fill="#5B9BD5" fill-rule="evenodd"/><path d="M849.5 208.393C849.5 203.137 853.753 198.875 859 198.875 864.247 198.875 868.5 203.137 868.5 208.393 868.5 213.65 864.247 217.911 859 217.911 853.753 217.911 849.5 213.65 849.5 208.393Z" stroke="#000000" stroke-width="0.333333" stroke-miterlimit="8" fill="#5B9BD5" fill-rule="evenodd"/><path d="M938.5 208.393C938.5 203.137 942.753 198.875 948 198.875 953.247 198.875 957.5 203.137 957.5 208.393 957.5 213.65 953.247 217.911 948 217.911 942.753 217.911 938.5 213.65 938.5 208.393Z" stroke="#000000" stroke-width="0.333333" stroke-miterlimit="8" fill="#ED7D31" fill-rule="evenodd"/><path d="M876.5 208.393C876.5 203.137 880.529 198.875 885.5 198.875 890.471 198.875 894.5 203.137 894.5 208.393 894.5 213.65 890.471 217.911 885.5 217.911 880.529 217.911 876.5 213.65 876.5 208.393Z" stroke="#000000" stroke-width="0.333333" stroke-miterlimit="8" fill="#ED7D31" fill-rule="evenodd"/><path d="M896.5 208.393C896.5 203.137 900.753 198.875 906 198.875 911.247 198.875 915.5 203.137 915.5 208.393 915.5 213.65 911.247 217.911 906 217.911 900.753 217.911 896.5 213.65 896.5 208.393Z" stroke="#000000" stroke-width="0.333333" stroke-miterlimit="8" fill="#ED7D31" fill-rule="evenodd"/><path d="M917.5 208.393C917.5 203.137 921.753 198.875 927 198.875 932.247 198.875 936.5 203.137 936.5 208.393 936.5 213.65 932.247 217.911 927 217.911 921.753 217.911 917.5 213.65 917.5 208.393Z" stroke="#000000" stroke-width="0.333333" stroke-miterlimit="8" fill="#ED7D31" fill-rule="evenodd"/><path d="M964.5 209.395C964.5 204.139 968.753 199.877 974 199.877 979.247 199.877 983.5 204.139 983.5 209.395 983.5 214.652 979.247 218.913 974 218.913 968.753 218.913 964.5 214.652 964.5 209.395Z" stroke="#000000" stroke-width="0.333333" stroke-miterlimit="8" fill="#70AD47" fill-rule="evenodd"/><path d="M986.5 209.395C986.5 204.139 990.753 199.877 996 199.877 1001.25 199.877 1005.5 204.139 1005.5 209.395 1005.5 214.652 1001.25 218.913 996 218.913 990.753 218.913 986.5 214.652 986.5 209.395Z" stroke="#000000" stroke-width="0.333333" stroke-miterlimit="8" fill="#70AD47" fill-rule="evenodd"/><path d="M1007.5 209.395C1007.5 204.139 1011.53 199.877 1016.5 199.877 1021.47 199.877 1025.5 204.139 1025.5 209.395 1025.5 214.652 1021.47 218.913 1016.5 218.913 1011.53 218.913 1007.5 214.652 1007.5 209.395Z" stroke="#000000" stroke-width="0.333333" stroke-miterlimit="8" fill="#70AD47" fill-rule="evenodd"/><path d="M1095.5 209.395C1095.5 204.139 1099.75 199.877 1105 199.877 1110.25 199.877 1114.5 204.139 1114.5 209.395 1114.5 214.652 1110.25 218.913 1105 218.913 1099.75 218.913 1095.5 214.652 1095.5 209.395Z" stroke="#000000" stroke-width="0.333333" stroke-miterlimit="8" fill="#BDD0E9" fill-rule="evenodd"/><path d="M1032.5 209.395C1032.5 204.139 1036.75 199.877 1042 199.877 1047.25 199.877 1051.5 204.139 1051.5 209.395 1051.5 214.652 1047.25 218.913 1042 218.913 1036.75 218.913 1032.5 214.652 1032.5 209.395Z" stroke="#000000" stroke-width="0.333333" stroke-miterlimit="8" fill="#BDD0E9" fill-rule="evenodd"/><path d="M1053.5 209.395C1053.5 204.139 1057.75 199.877 1063 199.877 1068.25 199.877 1072.5 204.139 1072.5 209.395 1072.5 214.652 1068.25 218.913 1063 218.913 1057.75 218.913 1053.5 214.652 1053.5 209.395Z" stroke="#000000" stroke-width="0.333333" stroke-miterlimit="8" fill="#BDD0E9" fill-rule="evenodd"/><path d="M1075.5 209.395C1075.5 204.139 1079.75 199.877 1085 199.877 1090.25 199.877 1094.5 204.139 1094.5 209.395 1094.5 214.652 1090.25 218.913 1085 218.913 1079.75 218.913 1075.5 214.652 1075.5 209.395Z" stroke="#000000" stroke-width="0.333333" stroke-miterlimit="8" fill="#BDD0E9" fill-rule="evenodd"/><path d="M1183.5 209.395C1183.5 204.139 1187.75 199.877 1193 199.877 1198.25 199.877 1202.5 204.139 1202.5 209.395 1202.5 214.652 1198.25 218.913 1193 218.913 1187.75 218.913 1183.5 214.652 1183.5 209.395Z" stroke="#000000" stroke-width="0.333333" stroke-miterlimit="8" fill="#FFC000" fill-rule="evenodd"/><path d="M1120.5 209.395C1120.5 204.139 1124.75 199.877 1130 199.877 1135.25 199.877 1139.5 204.139 1139.5 209.395 1139.5 214.652 1135.25 218.913 1130 218.913 1124.75 218.913 1120.5 214.652 1120.5 209.395Z" stroke="#000000" stroke-width="0.333333" stroke-miterlimit="8" fill="#FFC000" fill-rule="evenodd"/><path d="M1141.5 209.395C1141.5 204.139 1145.75 199.877 1151 199.877 1156.25 199.877 1160.5 204.139 1160.5 209.395 1160.5 214.652 1156.25 218.913 1151 218.913 1145.75 218.913 1141.5 214.652 1141.5 209.395Z" stroke="#000000" stroke-width="0.333333" stroke-miterlimit="8" fill="#FFC000" fill-rule="evenodd"/><path d="M1162.5 209.395C1162.5 204.139 1166.75 199.877 1172 199.877 1177.25 199.877 1181.5 204.139 1181.5 209.395 1181.5 214.652 1177.25 218.913 1172 218.913 1166.75 218.913 1162.5 214.652 1162.5 209.395Z" stroke="#000000" stroke-width="0.333333" stroke-miterlimit="8" fill="#FFC000" fill-rule="evenodd"/><path d="M1203.5 209.395C1203.5 204.139 1207.75 199.877 1213 199.877 1218.25 199.877 1222.5 204.139 1222.5 209.395 1222.5 214.652 1218.25 218.913 1213 218.913 1207.75 218.913 1203.5 214.652 1203.5 209.395Z" stroke="#000000" stroke-width="0.333333" stroke-miterlimit="8" fill="#FFC000" fill-rule="evenodd"/><path d="M1213.65 199.998 1179.5 151.786" stroke="#000000" stroke-width="0.333333" stroke-miterlimit="8" fill="none" fill-rule="evenodd"/><path d="M0 0 70.4774 41.5335" stroke="#000000" stroke-width="0.333333" stroke-miterlimit="8" fill="none" fill-rule="evenodd" transform="matrix(1 0 0 -1.00189 837.5 141.3)"/><path d="M914.788 141.533 914.5 102.694" stroke="#000000" stroke-width="0.333333" stroke-miterlimit="8" fill="none" fill-rule="evenodd"/><path d="M994.281 141.3 921.5 99.6881" stroke="#000000" stroke-width="0.333333" stroke-miterlimit="8" fill="none" fill-rule="evenodd"/><path d="M0 0 35.3749 43.9651" stroke="#000000" stroke-width="0.333333" stroke-miterlimit="8" fill="none" fill-rule="evenodd" transform="matrix(1 0 0 -1.00189 1071.5 141.733)"/><path d="M1169.92 141.566 1120.5 97.6844" stroke="#000000" stroke-width="0.333333" stroke-miterlimit="8" fill="none" fill-rule="evenodd"/><path d="M1005.5 50.0946C1005.5 44.8379 1009.75 40.5766 1015 40.5766 1020.25 40.5766 1024.5 44.8379 1024.5 50.0946 1024.5 55.3512 1020.25 59.6125 1015 59.6125 1009.75 59.6125 1005.5 55.3512 1005.5 50.0946Z" stroke="#000000" stroke-width="0.333333" stroke-miterlimit="8" fill="none" fill-rule="evenodd"/><path d="M905.5 108.705C905.5 103.725 909.753 99.6881 915 99.6881 920.247 99.6881 924.5 103.725 924.5 108.705 924.5 113.685 920.247 117.722 915 117.722 909.753 117.722 905.5 113.685 905.5 108.705Z" stroke="#000000" stroke-width="0.333333" stroke-miterlimit="8" fill="#FFFF00" fill-rule="evenodd"/><path d="M1104.5 107.202C1104.5 101.946 1108.75 97.6844 1114 97.6844 1119.25 97.6844 1123.5 101.946 1123.5 107.202 1123.5 112.459 1119.25 116.72 1114 116.72 1108.75 116.72 1104.5 112.459 1104.5 107.202Z" stroke="#000000" stroke-width="0.333333" stroke-miterlimit="8" fill="#00B0F0" fill-rule="evenodd"/><path d="M0 0 93.6791 42.7351" stroke="#000000" stroke-width="0.333333" stroke-miterlimit="8" fill="none" fill-rule="evenodd" transform="matrix(1 0 0 -1.00189 914.5 99.4228)"/><path d="M1113.5 97.4876 1021.5 56.6069" stroke="#000000" stroke-width="0.333333" stroke-miterlimit="8" fill="none" fill-rule="evenodd"/><path d="M673.5 139.764 790.5 139.764 790.5 130.747 808.5 148.781 790.5 166.815 790.5 157.798 673.5 157.798Z" stroke="#172C51" stroke-width="1.33333" stroke-miterlimit="8" fill="#4486B4" fill-rule="evenodd"/><text font-family="Times New Roman,Times New Roman_MSFontService,sans-serif" font-weight="400" font-size="21" transform="matrix(1 0 0 1.00189 697.544 134)">Combine</text></g></svg>