<svg width="1280" height="720" xmlns="http://www.w3.org/2000/svg" xmlns:xlink="http://www.w3.org/1999/xlink" overflow="hidden"><g><rect x="0" y="0" width="1280" height="720" fill="#FFFFFF"/><rect x="16.5001" y="213.5" width="1225" height="337" stroke="#172C51" stroke-width="1.33333" stroke-miterlimit="8" stroke-dasharray="5.33333 4" fill="none"/><path d="M434.5 293C434.5 287.753 438.753 283.5 444 283.5 449.247 283.5 453.5 287.753 453.5 293 453.5 298.247 449.247 302.5 444 302.5 438.753 302.5 434.5 298.247 434.5 293Z" stroke="#000000" stroke-width="0.333333" stroke-miterlimit="8" fill="none" fill-rule="evenodd"/><path d="M279.5 364C279.5 358.753 283.753 354.5 289 354.5 294.247 354.5 298.5 358.753 298.5 364 298.5 369.247 294.247 373.5 289 373.5 283.753 373.5 279.5 369.247 279.5 364Z" stroke="#000000" stroke-width="0.333333" stroke-miterlimit="8" fill="#5B9BD5" fill-rule="evenodd"/><path d="M257.5 451C257.5 445.753 261.753 441.5 267 441.5 272.247 441.5 276.5 445.753 276.5 451 276.5 456.247 272.247 460.5 267 460.5 261.753 460.5 257.5 456.247 257.5 451Z" stroke="#000000" stroke-width="0.333333" stroke-miterlimit="8" fill="#5B9BD5" fill-rule="evenodd"/><path d="M279.5 451C279.5 445.753 283.753 441.5 289 441.5 294.247 441.5 298.5 445.753 298.5 451 298.5 456.247 294.247 460.5 289 460.5 283.753 460.5 279.5 456.247 279.5 451Z" stroke="#000000" stroke-width="0.333333" stroke-miterlimit="8" fill="#5B9BD5" fill-rule="evenodd"/><path d="M300.5 451C300.5 445.753 304.753 441.5 310 441.5 315.247 441.5 319.5 445.753 319.5 451 319.5 456.247 315.247 460.5 310 460.5 304.753 460.5 300.5 456.247 300.5 451Z" stroke="#000000" stroke-width="0.333333" stroke-miterlimit="8" fill="#5B9BD5" fill-rule="evenodd"/><path d="M0 0 14.9241 70.6589" stroke="#000000" stroke-width="0.333333" stroke-miterlimit="8" fill="none" fill-rule="evenodd" transform="matrix(1 0 0 -1 267.5 441.159)"/><path d="M288.792 441.392 288.5 373.5" stroke="#000000" stroke-width="0.333333" stroke-miterlimit="8" fill="none" fill-rule="evenodd"/><path d="M310.328 441.159 295.5 370.5" stroke="#000000" stroke-width="0.333333" stroke-miterlimit="8" fill="none" fill-rule="evenodd"/><path d="M389.5 450C389.5 444.753 393.753 440.5 399 440.5 404.247 440.5 408.5 444.753 408.5 450 408.5 455.247 404.247 459.5 399 459.5 393.753 459.5 389.5 455.247 389.5 450Z" stroke="#000000" stroke-width="0.333333" stroke-miterlimit="8" fill="#ED7D31" fill-rule="evenodd"/><path d="M356.5 364C356.5 358.753 360.753 354.5 366 354.5 371.247 354.5 375.5 358.753 375.5 364 375.5 369.247 371.247 373.5 366 373.5 360.753 373.5 356.5 369.247 356.5 364Z" stroke="#000000" stroke-width="0.333333" stroke-miterlimit="8" fill="#ED7D31" fill-rule="evenodd"/><path d="M326.5 450C326.5 444.753 330.753 440.5 336 440.5 341.247 440.5 345.5 444.753 345.5 450 345.5 455.247 341.247 459.5 336 459.5 330.753 459.5 326.5 455.247 326.5 450Z" stroke="#000000" stroke-width="0.333333" stroke-miterlimit="8" fill="#ED7D31" fill-rule="evenodd"/><path d="M347.5 450C347.5 444.753 351.753 440.5 357 440.5 362.247 440.5 366.5 444.753 366.5 450 366.5 455.247 362.247 459.5 357 459.5 351.753 459.5 347.5 455.247 347.5 450Z" stroke="#000000" stroke-width="0.333333" stroke-miterlimit="8" fill="#ED7D31" fill-rule="evenodd"/><path d="M368.5 450C368.5 444.753 372.753 440.5 378 440.5 383.247 440.5 387.5 444.753 387.5 450 387.5 455.247 383.247 459.5 378 459.5 372.753 459.5 368.5 455.247 368.5 450Z" stroke="#000000" stroke-width="0.333333" stroke-miterlimit="8" fill="#ED7D31" fill-rule="evenodd"/><path d="M0 0 22.9733 69.8556" stroke="#000000" stroke-width="0.333333" stroke-miterlimit="8" fill="none" fill-rule="evenodd" transform="matrix(1 0 0 -1 336.5 440.356)"/><path d="M0 0 8.68714 67.0882" stroke="#000000" stroke-width="0.333333" stroke-miterlimit="8" fill="none" fill-rule="evenodd" transform="matrix(1 0 0 -1 357.5 440.588)"/><path d="M378.553 440.588 366.5 373.5" stroke="#000000" stroke-width="0.333333" stroke-miterlimit="8" fill="none" fill-rule="evenodd"/><path d="M399.09 440.356 372.5 370.5" stroke="#000000" stroke-width="0.333333" stroke-miterlimit="8" fill="none" fill-rule="evenodd"/><path d="M435.5 364C435.5 358.753 439.753 354.5 445 354.5 450.247 354.5 454.5 358.753 454.5 364 454.5 369.247 450.247 373.5 445 373.5 439.753 373.5 435.5 369.247 435.5 364Z" stroke="#000000" stroke-width="0.333333" stroke-miterlimit="8" fill="#70AD47" fill-rule="evenodd"/><path d="M415.5 451C415.5 445.753 419.753 441.5 425 441.5 430.247 441.5 434.5 445.753 434.5 451 434.5 456.247 430.247 460.5 425 460.5 419.753 460.5 415.5 456.247 415.5 451Z" stroke="#000000" stroke-width="0.333333" stroke-miterlimit="8" fill="#70AD47" fill-rule="evenodd"/><path d="M437.5 451C437.5 445.753 441.53 441.5 446.5 441.5 451.471 441.5 455.5 445.753 455.5 451 455.5 456.247 451.471 460.5 446.5 460.5 441.53 460.5 437.5 456.247 437.5 451Z" stroke="#000000" stroke-width="0.333333" stroke-miterlimit="8" fill="#70AD47" fill-rule="evenodd"/><path d="M457.5 451C457.5 445.753 461.753 441.5 467 441.5 472.247 441.5 476.5 445.753 476.5 451 476.5 456.247 472.247 460.5 467 460.5 461.753 460.5 457.5 456.247 457.5 451Z" stroke="#000000" stroke-width="0.333333" stroke-miterlimit="8" fill="#70AD47" fill-rule="evenodd"/><path d="M0 0 13.2818 70.979" stroke="#000000" stroke-width="0.333333" stroke-miterlimit="8" fill="none" fill-rule="evenodd" transform="matrix(1 0 0 -1 425.5 441.479)"/><path d="M446.755 441.712 445.5 373.5" stroke="#000000" stroke-width="0.333333" stroke-miterlimit="8" fill="none" fill-rule="evenodd"/><path d="M467.022 441.479 451.5 370.5" stroke="#000000" stroke-width="0.333333" stroke-miterlimit="8" fill="none" fill-rule="evenodd"/><path d="M546.5 451C546.5 445.753 550.753 441.5 556 441.5 561.247 441.5 565.5 445.753 565.5 451 565.5 456.247 561.247 460.5 556 460.5 550.753 460.5 546.5 456.247 546.5 451Z" stroke="#000000" stroke-width="0.333333" stroke-miterlimit="8" fill="#BDD0E9" fill-rule="evenodd"/><path d="M513.5 364C513.5 358.753 517.753 354.5 523 354.5 528.247 354.5 532.5 358.753 532.5 364 532.5 369.247 528.247 373.5 523 373.5 517.753 373.5 513.5 369.247 513.5 364Z" stroke="#000000" stroke-width="0.333333" stroke-miterlimit="8" fill="#BDD0E9" fill-rule="evenodd"/><path d="M483.5 451C483.5 445.753 487.753 441.5 493 441.5 498.247 441.5 502.5 445.753 502.5 451 502.5 456.247 498.247 460.5 493 460.5 487.753 460.5 483.5 456.247 483.5 451Z" stroke="#000000" stroke-width="0.333333" stroke-miterlimit="8" fill="#BDD0E9" fill-rule="evenodd"/><path d="M504.5 451C504.5 445.753 508.753 441.5 514 441.5 519.247 441.5 523.5 445.753 523.5 451 523.5 456.247 519.247 460.5 514 460.5 508.753 460.5 504.5 456.247 504.5 451Z" stroke="#000000" stroke-width="0.333333" stroke-miterlimit="8" fill="#BDD0E9" fill-rule="evenodd"/><path d="M526.5 451C526.5 445.753 530.529 441.5 535.5 441.5 540.471 441.5 544.5 445.753 544.5 451 544.5 456.247 540.471 460.5 535.5 460.5 530.529 460.5 526.5 456.247 526.5 451Z" stroke="#000000" stroke-width="0.333333" stroke-miterlimit="8" fill="#BDD0E9" fill-rule="evenodd"/><path d="M0 0 22.8294 70.479" stroke="#000000" stroke-width="0.333333" stroke-miterlimit="8" fill="none" fill-rule="evenodd" transform="matrix(1 0 0 -1 493.5 441.979)"/><path d="M0 0 8.43391 67.7115" stroke="#000000" stroke-width="0.333333" stroke-miterlimit="8" fill="none" fill-rule="evenodd" transform="matrix(1 0 0 -1 514.5 441.212)"/><path d="M535.284 441.212 522.5 373.5" stroke="#000000" stroke-width="0.333333" stroke-miterlimit="8" fill="none" fill-rule="evenodd"/><path d="M556.216 441.979 529.5 371.5" stroke="#000000" stroke-width="0.333333" stroke-miterlimit="8" fill="none" fill-rule="evenodd"/><path d="M634.5 451C634.5 445.753 638.753 441.5 644 441.5 649.247 441.5 653.5 445.753 653.5 451 653.5 456.247 649.247 460.5 644 460.5 638.753 460.5 634.5 456.247 634.5 451Z" stroke="#000000" stroke-width="0.333333" stroke-miterlimit="8" fill="#FFC000" fill-rule="evenodd"/><path d="M611.5 364C611.5 358.753 615.753 354.5 621 354.5 626.247 354.5 630.5 358.753 630.5 364 630.5 369.247 626.247 373.5 621 373.5 615.753 373.5 611.5 369.247 611.5 364Z" stroke="#000000" stroke-width="0.333333" stroke-miterlimit="8" fill="#FFC000" fill-rule="evenodd"/><path d="M571.5 451C571.5 445.753 575.753 441.5 581 441.5 586.247 441.5 590.5 445.753 590.5 451 590.5 456.247 586.247 460.5 581 460.5 575.753 460.5 571.5 456.247 571.5 451Z" stroke="#000000" stroke-width="0.333333" stroke-miterlimit="8" fill="#FFC000" fill-rule="evenodd"/><path d="M592.5 451C592.5 445.753 596.753 441.5 602 441.5 607.247 441.5 611.5 445.753 611.5 451 611.5 456.247 607.247 460.5 602 460.5 596.753 460.5 592.5 456.247 592.5 451Z" stroke="#000000" stroke-width="0.333333" stroke-miterlimit="8" fill="#FFC000" fill-rule="evenodd"/><path d="M613.5 451C613.5 445.753 617.753 441.5 623 441.5 628.247 441.5 632.5 445.753 632.5 451 632.5 456.247 628.247 460.5 623 460.5 617.753 460.5 613.5 456.247 613.5 451Z" stroke="#000000" stroke-width="0.333333" stroke-miterlimit="8" fill="#FFC000" fill-rule="evenodd"/><path d="M0 0 30.8291 77.327" stroke="#000000" stroke-width="0.333333" stroke-miterlimit="8" fill="none" fill-rule="evenodd" transform="matrix(1 0 0 -1 580.5 441.827)"/><path d="M0 0 12.4477 70.6457" stroke="#000000" stroke-width="0.333333" stroke-miterlimit="8" fill="none" fill-rule="evenodd" transform="matrix(1 0 0 -1 601.5 441.146)"/><path d="M622.268 441.378 620.5 373.5" stroke="#000000" stroke-width="0.333333" stroke-miterlimit="8" fill="none" fill-rule="evenodd"/><path d="M643.732 441.146 627.5 370.5" stroke="#000000" stroke-width="0.333333" stroke-miterlimit="8" fill="none" fill-rule="evenodd"/><path d="M654.5 451C654.5 445.753 658.753 441.5 664 441.5 669.247 441.5 673.5 445.753 673.5 451 673.5 456.247 669.247 460.5 664 460.5 658.753 460.5 654.5 456.247 654.5 451Z" stroke="#000000" stroke-width="0.333333" stroke-miterlimit="8" fill="#FFC000" fill-rule="evenodd"/><path d="M664.458 441.827 630.5 364.5" stroke="#000000" stroke-width="0.333333" stroke-miterlimit="8" fill="none" fill-rule="evenodd"/><path d="M0 0 146.187 61.7856" stroke="#000000" stroke-width="0.333333" stroke-miterlimit="8" fill="none" fill-rule="evenodd" transform="matrix(1 0 0 -1 288.5 354.286)"/><path d="M0 0 71.5078 55.1043" stroke="#000000" stroke-width="0.333333" stroke-miterlimit="8" fill="none" fill-rule="evenodd" transform="matrix(1 0 0 -1 366.5 354.604)"/><path d="M445.486 354.837 444.5 302.5" stroke="#000000" stroke-width="0.333333" stroke-miterlimit="8" fill="none" fill-rule="evenodd"/><path d="M522.325 355.104 450.5 299.5" stroke="#000000" stroke-width="0.333333" stroke-miterlimit="8" fill="none" fill-rule="evenodd"/><path d="M453.5 292.5 620.711 354.619" stroke="#000000" stroke-width="0.333333" stroke-miterlimit="8" fill="none" fill-rule="evenodd"/><path d="M123.5 292C123.5 286.753 127.753 282.5 133 282.5 138.247 282.5 142.5 286.753 142.5 292 142.5 297.247 138.247 301.5 133 301.5 127.753 301.5 123.5 297.247 123.5 292Z" stroke="#000000" stroke-width="0.333333" stroke-miterlimit="8" fill="none" fill-rule="evenodd"/><path d="M90.5001 364C90.5001 358.753 94.7533 354.5 100 354.5 105.247 354.5 109.5 358.753 109.5 364 109.5 369.247 105.247 373.5 100 373.5 94.7533 373.5 90.5001 369.247 90.5001 364Z" stroke="#000000" stroke-width="0.333333" stroke-miterlimit="8" fill="#FFFF00" fill-rule="evenodd"/><path d="M68.5001 450.5C68.5001 445.53 72.7533 441.5 78.0001 441.5 83.2468 441.5 87.5001 445.53 87.5001 450.5 87.5001 455.471 83.2468 459.5 78.0001 459.5 72.7533 459.5 68.5001 455.471 68.5001 450.5Z" stroke="#000000" stroke-width="0.333333" stroke-miterlimit="8" fill="#5B9BD5" fill-rule="evenodd"/><path d="M90.5001 450.5C90.5001 445.53 94.7533 441.5 100 441.5 105.247 441.5 109.5 445.53 109.5 450.5 109.5 455.471 105.247 459.5 100 459.5 94.7533 459.5 90.5001 455.471 90.5001 450.5Z" stroke="#000000" stroke-width="0.333333" stroke-miterlimit="8" fill="#ED7D31" fill-rule="evenodd"/><path d="M111.5 450.5C111.5 445.53 115.753 441.5 121 441.5 126.247 441.5 130.5 445.53 130.5 450.5 130.5 455.471 126.247 459.5 121 459.5 115.753 459.5 111.5 455.471 111.5 450.5Z" stroke="#000000" stroke-width="0.333333" stroke-miterlimit="8" fill="#70AD47" fill-rule="evenodd"/><path d="M0 0 14.9241 70.6589" stroke="#000000" stroke-width="0.333333" stroke-miterlimit="8" fill="none" fill-rule="evenodd" transform="matrix(1 0 0 -1 78.5001 441.159)"/><path d="M99.7919 441.392 99.5001 373.5" stroke="#000000" stroke-width="0.333333" stroke-miterlimit="8" fill="none" fill-rule="evenodd"/><path d="M121.328 441.159 106.5 370.5" stroke="#000000" stroke-width="0.333333" stroke-miterlimit="8" fill="none" fill-rule="evenodd"/><path d="M187.5 450.5C187.5 445.53 191.753 441.5 197 441.5 202.247 441.5 206.5 445.53 206.5 450.5 206.5 455.471 202.247 459.5 197 459.5 191.753 459.5 187.5 455.471 187.5 450.5Z" stroke="#000000" stroke-width="0.333333" stroke-miterlimit="8" fill="#FFC000" fill-rule="evenodd"/><path d="M166.5 364C166.5 358.753 170.753 354.5 176 354.5 181.247 354.5 185.5 358.753 185.5 364 185.5 369.247 181.247 373.5 176 373.5 170.753 373.5 166.5 369.247 166.5 364Z" stroke="#000000" stroke-width="0.333333" stroke-miterlimit="8" fill="#00B0F0" fill-rule="evenodd"/><path d="M152.5 450.5C152.5 445.53 156.753 441.5 162 441.5 167.247 441.5 171.5 445.53 171.5 450.5 171.5 455.471 167.247 459.5 162 459.5 156.753 459.5 152.5 455.471 152.5 450.5Z" stroke="#000000" stroke-width="0.333333" stroke-miterlimit="8" fill="#BDD0E9" fill-rule="evenodd"/><path d="M0 0 7.48178 70.6589" stroke="#000000" stroke-width="0.333333" stroke-miterlimit="8" fill="none" fill-rule="evenodd" transform="matrix(1 0 0 -1 162.5 441.159)"/><path d="M196.645 441.159 182.5 370.5" stroke="#000000" stroke-width="0.333333" stroke-miterlimit="8" fill="none" fill-rule="evenodd"/><path d="M0 0 26.7325 55.1043" stroke="#000000" stroke-width="0.333333" stroke-miterlimit="8" fill="none" fill-rule="evenodd" transform="matrix(1 0 0 -1 99.5001 354.604)"/><path d="M175.962 354.604 139.5 299.5" stroke="#000000" stroke-width="0.333333" stroke-miterlimit="8" fill="none" fill-rule="evenodd"/><path d="M0.0199815-0.165465 2.66741 0.15424 2.62745 0.485169-0.0199815 0.165465ZM3.65599 0.452734 5.75263 1.19657 6.16156 1.43436 5.994 1.72252 5.59849 1.49254 5.62654 1.50553 3.54454 0.766882ZM7.02604 1.93703 8.56235 2.83036 9.27461 3.4045 9.06542 3.66402 8.36302 3.09783 8.38384 3.11215 6.85848 2.22519ZM10.0532 4.03208 11.2987 5.03604 12.0547 5.81786 11.815 6.04958 11.0662 5.27518 11.0814 5.28908 9.84397 4.29159ZM12.7498 6.53673 13.9409 7.7685 14.5406 8.5313 14.2785 8.73731 13.6841 7.98122 13.6954 7.99408 12.5102 6.76845ZM15.1586 9.31747 16.4683 10.9835 16.776 11.4537 16.4971 11.6362 16.1933 11.1721 16.2017 11.1838 14.8965 9.52347ZM17.3236 12.2904 18.7839 14.5217 18.505 14.7043 17.0447 12.473ZM19.2819 15.403 20.5699 17.738 20.278 17.899 18.99 15.564ZM21.0529 18.6136 21.0939 18.6879 22.118 21.0759 21.8117 21.2072 20.7908 18.8269 20.7981 18.8417 20.761 18.7746ZM22.5122 21.9949 23.5632 24.4457 23.2569 24.5771 22.2058 22.1263ZM23.9573 25.3648 24.9983 27.7919 25.0111 27.8353 24.6915 27.93 24.6814 27.896 24.6881 27.9143 23.651 25.4961ZM25.2952 28.7941 26.0526 31.351 25.733 31.4456 24.9755 28.8888ZM26.3366 32.3098 27.0941 34.8666 26.7745 34.9613 26.017 32.4044ZM27.3781 35.8254 28.0084 37.953 28.0902 38.4121 27.7621 38.4706 27.6819 38.0207 27.6862 38.0387 27.0585 35.9201ZM28.2658 39.3965 28.7338 42.0218 28.4057 42.0803 27.9376 39.455ZM28.9093 43.0063 29.3774 45.6316 29.0492 45.6901 28.5812 43.0648ZM29.5529 46.616 29.9455 48.818 29.9729 49.2664 29.6401 49.2867 29.6133 48.8479 29.6156 48.867 29.2247 46.6745ZM30.0338 50.2645 30.1965 52.9262 29.8638 52.9466 29.7011 50.2849ZM30.2575 53.9244 30.4201 56.5861 30.0874 56.6064 29.9248 53.9447ZM30.4811 57.5842 30.6303 60.0257 30.63 60.0214 30.6491 60.2412 30.317 60.2701 30.2977 60.0482 30.1484 57.6045ZM30.7358 61.2374 30.9671 63.8941 30.635 63.923 30.4038 61.2664ZM31.0538 64.8903 31.1193 65.6424 31.1147 65.6156 31.5884 67.4677 31.2655 67.5503 30.7884 65.685 30.7217 64.9192ZM31.8362 68.4365 32.4969 71.02 32.174 71.1026 31.5132 68.5191ZM32.851 71.9274 33.8819 74.3868 33.5745 74.5156 32.5436 72.0563ZM34.2685 75.309 34.8342 76.6586 34.8246 76.6393 35.4291 77.6797 35.1409 77.8472 34.531 76.7975 33.9611 75.4379ZM35.9316 78.5443 37.2713 80.85 36.9831 81.0175 35.6434 78.7118ZM37.7738 81.7146 37.9376 81.9965 37.9271 81.9806 39.326 83.8572 39.0588 84.0564 37.6541 82.1722 37.4856 81.8821ZM39.9237 84.6589 41.5175 86.7969 41.2503 86.9961 39.6565 84.8582ZM42.147 87.5504 43.9493 89.5158 43.7036 89.7411 41.9013 87.7757ZM44.6252 90.2528 46.3286 92.1104 46.3178 92.0996 46.4261 92.198 46.202 92.4448 46.0881 92.3413 44.3795 90.4781ZM47.1665 92.8701 49.1409 94.6626 48.9168 94.9094 46.9424 93.1169ZM49.8813 95.3348 51.4922 96.7973 51.4815 96.7883 51.8713 97.0866 51.6687 97.3513 51.2733 97.0488 49.6572 95.5816ZM52.6655 97.6943 54.7832 99.3149 54.5806 99.5796 52.4629 97.9591ZM55.5774 99.9226 57.2181 101.178 57.2074 101.171 57.7116 101.497 57.5304 101.777 57.0207 101.447 55.3748 100.187ZM58.551 102.041 60.7894 103.49 60.6082 103.77 58.3698 102.32ZM61.6288 104.033 63.4437 105.209 63.433 105.202 63.8758 105.444 63.7161 105.737 63.2678 105.492 61.4476 104.313ZM64.7536 105.923 67.0943 107.201 66.9346 107.493 64.5939 106.216ZM67.9721 107.68 70.1066 108.845 70.0957 108.839 70.3096 108.936 70.1717 109.24 69.9523 109.14 67.8124 107.972ZM71.22 109.35 73.6478 110.453 73.5099 110.757 71.0822 109.653ZM74.5583 110.867 76.9861 111.97 76.8482 112.273 74.4204 111.17ZM77.9081 112.323 80.4096 113.247 80.2941 113.56 77.7926 112.636ZM81.3477 113.594 83.8491 114.518 83.7336 114.831 81.2322 113.907ZM84.7827 114.839 87.3453 115.577 87.253 115.897 84.6905 115.159ZM88.3062 115.853 90.8688 116.591 90.7766 116.911 88.214 116.174ZM91.8298 116.868 92.0928 116.943 92.0806 116.94 94.4235 117.427 94.3557 117.753 92.0066 117.266 91.7375 117.188ZM95.4026 117.63 98.0136 118.173 97.9458 118.499 95.3348 117.957ZM98.9927 118.376 99.8786 118.56 99.8657 118.558 101.614 118.779 101.572 119.11 99.8173 118.888 98.9249 118.702ZM102.606 118.905 105.251 119.24 105.209 119.571 102.564 119.236ZM106.243 119.366 107.789 119.562 107.775 119.561 108.883 119.609 108.868 119.942 107.754 119.894 106.201 119.697ZM109.882 119.652 112.546 119.767 112.532 120.1 109.867 119.985ZM113.545 119.81 115.76 119.905 115.748 119.905 116.197 119.89 116.208 120.223 115.752 120.239 113.531 120.143ZM117.196 119.856 119.861 119.766 119.872 120.099 117.207 120.189ZM120.861 119.732 123.526 119.642 123.537 119.975 120.872 120.065ZM124.525 119.608 127.19 119.517 127.201 119.851 124.536 119.941ZM128.19 119.484 130.855 119.393 130.866 119.726 128.201 119.817ZM131.843 119.347 134.496 119.085 134.529 119.417 131.875 119.679ZM135.491 118.987 138.145 118.724 138.178 119.056 135.524 119.318ZM139.14 118.626 141.794 118.363 141.827 118.695 139.173 118.958ZM142.789 118.265 145.443 118.003 145.476 118.334 142.822 118.597ZM146.438 117.904 147.054 117.843 147.043 117.845 149.064 117.513 149.118 117.842 147.092 118.175 146.471 118.236ZM150.051 117.351 152.682 116.918 152.736 117.247 150.105 117.68ZM153.669 116.756 156.3 116.324 156.354 116.653 153.723 117.085ZM157.287 116.162 159.919 115.73 159.973 116.059 157.341 116.491ZM160.905 115.568 161.452 115.478 161.444 115.479 163.508 115.029 163.579 115.355 161.511 115.806 160.959 115.896ZM164.485 114.816 167.09 114.247 167.161 114.573 164.556 115.142ZM168.067 114.034 168.118 114.023 168.111 114.025 170.643 113.369 170.726 113.692 168.192 114.348 168.138 114.36ZM171.611 113.119 174.193 112.451 174.276 112.773 171.694 113.442ZM175.144 112.167 177.694 111.387 177.791 111.706 175.241 112.486ZM178.65 111.094 180.077 110.658 180.069 110.66 181.173 110.26 181.287 110.573 180.179 110.975 178.747 111.413ZM182.113 109.919 184.619 109.009 184.733 109.322 182.227 110.232ZM185.542 108.652 187.986 107.586 188.12 107.892 185.675 108.958ZM188.903 107.187 189.784 106.803 189.771 106.809 191.275 106.003 191.433 106.296 189.923 107.106 189.036 107.492ZM192.156 105.53 193.634 104.738 193.604 104.758 194.356 104.114 194.573 104.367 193.807 105.023 192.314 105.824ZM195.116 103.464 197.142 101.729 197.358 101.983 195.333 103.717ZM193.36 100.653 201.042 96.072 200.098 104.966Z" transform="matrix(-1 1.22465e-16 1.22465e-16 1 279.542 363.5)"/><path d="M0 0 14.7344 41.452" stroke="#000000" stroke-width="0.333333" stroke-miterlimit="8" fill="none" fill-rule="evenodd" transform="matrix(1 0 0 -1 816.5 441.952)"/><path d="M837.982 442.185 837.5 403.5" stroke="#000000" stroke-width="0.333333" stroke-miterlimit="8" fill="none" fill-rule="evenodd"/><path d="M859.518 441.952 844.5 400.5" stroke="#000000" stroke-width="0.333333" stroke-miterlimit="8" fill="none" fill-rule="evenodd"/><path d="M0 0 22.7836 40.6487" stroke="#000000" stroke-width="0.333333" stroke-miterlimit="8" fill="none" fill-rule="evenodd" transform="matrix(1 0 0 -1 885.5 441.149)"/><path d="M0 0 8.49743 37.8813" stroke="#000000" stroke-width="0.333333" stroke-miterlimit="8" fill="none" fill-rule="evenodd" transform="matrix(1 0 0 -1 906.5 441.381)"/><path d="M926.743 441.381 914.5 403.5" stroke="#000000" stroke-width="0.333333" stroke-miterlimit="8" fill="none" fill-rule="evenodd"/><path d="M948.28 441.149 921.5 400.5" stroke="#000000" stroke-width="0.333333" stroke-miterlimit="8" fill="none" fill-rule="evenodd"/><path d="M0 0 13.0921 41.7721" stroke="#000000" stroke-width="0.333333" stroke-miterlimit="8" fill="none" fill-rule="evenodd" transform="matrix(1 0 0 -1 974.5 442.272)"/><path d="M995.944 442.505 994.5 403.5" stroke="#000000" stroke-width="0.333333" stroke-miterlimit="8" fill="none" fill-rule="evenodd"/><path d="M1016.21 442.272 1000.5 400.5" stroke="#000000" stroke-width="0.333333" stroke-miterlimit="8" fill="none" fill-rule="evenodd"/><path d="M0 0 22.6397 41.272" stroke="#000000" stroke-width="0.333333" stroke-miterlimit="8" fill="none" fill-rule="evenodd" transform="matrix(1 0 0 -1 1042.5 442.772)"/><path d="M0 0 8.2442 38.5046" stroke="#000000" stroke-width="0.333333" stroke-miterlimit="8" fill="none" fill-rule="evenodd" transform="matrix(1 0 0 -1 1063.5 442.005)"/><path d="M1084.47 442.005 1071.5 403.5" stroke="#000000" stroke-width="0.333333" stroke-miterlimit="8" fill="none" fill-rule="evenodd"/><path d="M1105.41 442.772 1078.5 401.5" stroke="#000000" stroke-width="0.333333" stroke-miterlimit="8" fill="none" fill-rule="evenodd"/><path d="M828.5 394C828.5 388.753 832.529 384.5 837.5 384.5 842.471 384.5 846.5 388.753 846.5 394 846.5 399.247 842.471 403.5 837.5 403.5 832.529 403.5 828.5 399.247 828.5 394Z" stroke="#000000" stroke-width="0.333333" stroke-miterlimit="8" fill="#5B9BD5" fill-rule="evenodd"/><path d="M905.5 394C905.5 388.753 909.753 384.5 915 384.5 920.247 384.5 924.5 388.753 924.5 394 924.5 399.247 920.247 403.5 915 403.5 909.753 403.5 905.5 399.247 905.5 394Z" stroke="#000000" stroke-width="0.333333" stroke-miterlimit="8" fill="#ED7D31" fill-rule="evenodd"/><path d="M984.5 394C984.5 388.753 988.753 384.5 994 384.5 999.247 384.5 1003.5 388.753 1003.5 394 1003.5 399.247 999.247 403.5 994 403.5 988.753 403.5 984.5 399.247 984.5 394Z" stroke="#000000" stroke-width="0.333333" stroke-miterlimit="8" fill="#70AD47" fill-rule="evenodd"/><path d="M1062.5 394C1062.5 388.753 1066.75 384.5 1072 384.5 1077.25 384.5 1081.5 388.753 1081.5 394 1081.5 399.247 1077.25 403.5 1072 403.5 1066.75 403.5 1062.5 399.247 1062.5 394Z" stroke="#000000" stroke-width="0.333333" stroke-miterlimit="8" fill="#BDD0E9" fill-rule="evenodd"/><path d="M1160.5 394C1160.5 388.753 1164.75 384.5 1170 384.5 1175.25 384.5 1179.5 388.753 1179.5 394 1179.5 399.247 1175.25 403.5 1170 403.5 1164.75 403.5 1160.5 399.247 1160.5 394Z" stroke="#000000" stroke-width="0.333333" stroke-miterlimit="8" fill="#FFC000" fill-rule="evenodd"/><path d="M0 0 30.6394 48.1201" stroke="#000000" stroke-width="0.333333" stroke-miterlimit="8" fill="none" fill-rule="evenodd" transform="matrix(1 0 0 -1 1129.5 442.62)"/><path d="M0 0 12.258 41.4387" stroke="#000000" stroke-width="0.333333" stroke-miterlimit="8" fill="none" fill-rule="evenodd" transform="matrix(1 0 0 -1 1150.5 441.939)"/><path d="M1171.46 442.171 1169.5 403.5" stroke="#000000" stroke-width="0.333333" stroke-miterlimit="8" fill="none" fill-rule="evenodd"/><path d="M1192.92 441.939 1176.5 400.5" stroke="#000000" stroke-width="0.333333" stroke-miterlimit="8" fill="none" fill-rule="evenodd"/><path d="M806.5 451.5C806.5 446.53 810.753 442.5 816 442.5 821.247 442.5 825.5 446.53 825.5 451.5 825.5 456.471 821.247 460.5 816 460.5 810.753 460.5 806.5 456.471 806.5 451.5Z" stroke="#000000" stroke-width="0.333333" stroke-miterlimit="8" fill="#5B9BD5" fill-rule="evenodd"/><path d="M828.5 451.5C828.5 446.53 832.753 442.5 838 442.5 843.247 442.5 847.5 446.53 847.5 451.5 847.5 456.471 843.247 460.5 838 460.5 832.753 460.5 828.5 456.471 828.5 451.5Z" stroke="#000000" stroke-width="0.333333" stroke-miterlimit="8" fill="#5B9BD5" fill-rule="evenodd"/><path d="M849.5 451.5C849.5 446.53 853.753 442.5 859 442.5 864.247 442.5 868.5 446.53 868.5 451.5 868.5 456.471 864.247 460.5 859 460.5 853.753 460.5 849.5 456.471 849.5 451.5Z" stroke="#000000" stroke-width="0.333333" stroke-miterlimit="8" fill="#5B9BD5" fill-rule="evenodd"/><path d="M938.5 451C938.5 445.753 942.753 441.5 948 441.5 953.247 441.5 957.5 445.753 957.5 451 957.5 456.247 953.247 460.5 948 460.5 942.753 460.5 938.5 456.247 938.5 451Z" stroke="#000000" stroke-width="0.333333" stroke-miterlimit="8" fill="#ED7D31" fill-rule="evenodd"/><path d="M876.5 451C876.5 445.753 880.529 441.5 885.5 441.5 890.471 441.5 894.5 445.753 894.5 451 894.5 456.247 890.471 460.5 885.5 460.5 880.529 460.5 876.5 456.247 876.5 451Z" stroke="#000000" stroke-width="0.333333" stroke-miterlimit="8" fill="#ED7D31" fill-rule="evenodd"/><path d="M896.5 451C896.5 445.753 900.753 441.5 906 441.5 911.247 441.5 915.5 445.753 915.5 451 915.5 456.247 911.247 460.5 906 460.5 900.753 460.5 896.5 456.247 896.5 451Z" stroke="#000000" stroke-width="0.333333" stroke-miterlimit="8" fill="#ED7D31" fill-rule="evenodd"/><path d="M917.5 451C917.5 445.753 921.753 441.5 927 441.5 932.247 441.5 936.5 445.753 936.5 451 936.5 456.247 932.247 460.5 927 460.5 921.753 460.5 917.5 456.247 917.5 451Z" stroke="#000000" stroke-width="0.333333" stroke-miterlimit="8" fill="#ED7D31" fill-rule="evenodd"/><path d="M964.5 452C964.5 446.753 968.753 442.5 974 442.5 979.247 442.5 983.5 446.753 983.5 452 983.5 457.247 979.247 461.5 974 461.5 968.753 461.5 964.5 457.247 964.5 452Z" stroke="#000000" stroke-width="0.333333" stroke-miterlimit="8" fill="#70AD47" fill-rule="evenodd"/><path d="M986.5 452C986.5 446.753 990.753 442.5 996 442.5 1001.25 442.5 1005.5 446.753 1005.5 452 1005.5 457.247 1001.25 461.5 996 461.5 990.753 461.5 986.5 457.247 986.5 452Z" stroke="#000000" stroke-width="0.333333" stroke-miterlimit="8" fill="#70AD47" fill-rule="evenodd"/><path d="M1007.5 452C1007.5 446.753 1011.53 442.5 1016.5 442.5 1021.47 442.5 1025.5 446.753 1025.5 452 1025.5 457.247 1021.47 461.5 1016.5 461.5 1011.53 461.5 1007.5 457.247 1007.5 452Z" stroke="#000000" stroke-width="0.333333" stroke-miterlimit="8" fill="#70AD47" fill-rule="evenodd"/><path d="M1095.5 452C1095.5 446.753 1099.75 442.5 1105 442.5 1110.25 442.5 1114.5 446.753 1114.5 452 1114.5 457.247 1110.25 461.5 1105 461.5 1099.75 461.5 1095.5 457.247 1095.5 452Z" stroke="#000000" stroke-width="0.333333" stroke-miterlimit="8" fill="#BDD0E9" fill-rule="evenodd"/><path d="M1032.5 452C1032.5 446.753 1036.75 442.5 1042 442.5 1047.25 442.5 1051.5 446.753 1051.5 452 1051.5 457.247 1047.25 461.5 1042 461.5 1036.75 461.5 1032.5 457.247 1032.5 452Z" stroke="#000000" stroke-width="0.333333" stroke-miterlimit="8" fill="#BDD0E9" fill-rule="evenodd"/><path d="M1053.5 452C1053.5 446.753 1057.75 442.5 1063 442.5 1068.25 442.5 1072.5 446.753 1072.5 452 1072.5 457.247 1068.25 461.5 1063 461.5 1057.75 461.5 1053.5 457.247 1053.5 452Z" stroke="#000000" stroke-width="0.333333" stroke-miterlimit="8" fill="#BDD0E9" fill-rule="evenodd"/><path d="M1075.5 452C1075.5 446.753 1079.75 442.5 1085 442.5 1090.25 442.5 1094.5 446.753 1094.5 452 1094.5 457.247 1090.25 461.5 1085 461.5 1079.75 461.5 1075.5 457.247 1075.5 452Z" stroke="#000000" stroke-width="0.333333" stroke-miterlimit="8" fill="#BDD0E9" fill-rule="evenodd"/><path d="M1183.5 452C1183.5 446.753 1187.75 442.5 1193 442.5 1198.25 442.5 1202.5 446.753 1202.5 452 1202.5 457.247 1198.25 461.5 1193 461.5 1187.75 461.5 1183.5 457.247 1183.5 452Z" stroke="#000000" stroke-width="0.333333" stroke-miterlimit="8" fill="#FFC000" fill-rule="evenodd"/><path d="M1120.5 452C1120.5 446.753 1124.75 442.5 1130 442.5 1135.25 442.5 1139.5 446.753 1139.5 452 1139.5 457.247 1135.25 461.5 1130 461.5 1124.75 461.5 1120.5 457.247 1120.5 452Z" stroke="#000000" stroke-width="0.333333" stroke-miterlimit="8" fill="#FFC000" fill-rule="evenodd"/><path d="M1141.5 452C1141.5 446.753 1145.75 442.5 1151 442.5 1156.25 442.5 1160.5 446.753 1160.5 452 1160.5 457.247 1156.25 461.5 1151 461.5 1145.75 461.5 1141.5 457.247 1141.5 452Z" stroke="#000000" stroke-width="0.333333" stroke-miterlimit="8" fill="#FFC000" fill-rule="evenodd"/><path d="M1162.5 452C1162.5 446.753 1166.75 442.5 1172 442.5 1177.25 442.5 1181.5 446.753 1181.5 452 1181.5 457.247 1177.25 461.5 1172 461.5 1166.75 461.5 1162.5 457.247 1162.5 452Z" stroke="#000000" stroke-width="0.333333" stroke-miterlimit="8" fill="#FFC000" fill-rule="evenodd"/><path d="M1203.5 452C1203.5 446.753 1207.75 442.5 1213 442.5 1218.25 442.5 1222.5 446.753 1222.5 452 1222.5 457.247 1218.25 461.5 1213 461.5 1207.75 461.5 1203.5 457.247 1203.5 452Z" stroke="#000000" stroke-width="0.333333" stroke-miterlimit="8" fill="#FFC000" fill-rule="evenodd"/><path d="M1213.65 442.62 1179.5 394.5" stroke="#000000" stroke-width="0.333333" stroke-miterlimit="8" fill="none" fill-rule="evenodd"/><path d="M0 0 70.4774 41.5335" stroke="#000000" stroke-width="0.333333" stroke-miterlimit="8" fill="none" fill-rule="evenodd" transform="matrix(1 0 0 -1 837.5 384.034)"/><path d="M914.788 384.266 914.5 345.5" stroke="#000000" stroke-width="0.333333" stroke-miterlimit="8" fill="none" fill-rule="evenodd"/><path d="M994.281 384.034 921.5 342.5" stroke="#000000" stroke-width="0.333333" stroke-miterlimit="8" fill="none" fill-rule="evenodd"/><path d="M0 0 35.3749 43.9651" stroke="#000000" stroke-width="0.333333" stroke-miterlimit="8" fill="none" fill-rule="evenodd" transform="matrix(1 0 0 -1 1071.5 385.465)"/><path d="M1169.92 385.298 1120.5 341.5" stroke="#000000" stroke-width="0.333333" stroke-miterlimit="8" fill="none" fill-rule="evenodd"/><path d="M1005.5 293C1005.5 287.753 1009.75 283.5 1015 283.5 1020.25 283.5 1024.5 287.753 1024.5 293 1024.5 298.247 1020.25 302.5 1015 302.5 1009.75 302.5 1005.5 298.247 1005.5 293Z" stroke="#000000" stroke-width="0.333333" stroke-miterlimit="8" fill="none" fill-rule="evenodd"/><path d="M905.5 336C905.5 330.753 909.753 326.5 915 326.5 920.247 326.5 924.5 330.753 924.5 336 924.5 341.247 920.247 345.5 915 345.5 909.753 345.5 905.5 341.247 905.5 336Z" stroke="#000000" stroke-width="0.333333" stroke-miterlimit="8" fill="#FFFF00" fill-rule="evenodd"/><path d="M1104.5 334C1104.5 328.753 1108.75 324.5 1114 324.5 1119.25 324.5 1123.5 328.753 1123.5 334 1123.5 339.247 1119.25 343.5 1114 343.5 1108.75 343.5 1104.5 339.247 1104.5 334Z" stroke="#000000" stroke-width="0.333333" stroke-miterlimit="8" fill="#00B0F0" fill-rule="evenodd"/><path d="M0 0 93.1457 27.3691" stroke="#000000" stroke-width="0.333333" stroke-miterlimit="8" fill="none" fill-rule="evenodd" transform="matrix(1 0 0 -1 914.5 326.869)"/><path d="M1114.03 324.938 1021.5 299.5" stroke="#000000" stroke-width="0.333333" stroke-miterlimit="8" fill="none" fill-rule="evenodd"/><path d="M673.5 382.5 790.5 382.5 790.5 373.5 808.5 391.5 790.5 409.5 790.5 400.5 673.5 400.5Z" stroke="#172C51" stroke-width="1.33333" stroke-miterlimit="8" fill="#4486B4" fill-rule="evenodd"/><text font-family="Times New Roman,Times New Roman_MSFontService,sans-serif" font-weight="400" font-size="21" transform="translate(697.544 376)">Combine</text></g></svg>
